<?xml version="1.0" standalone="no"?>
<!DOCTYPE svg PUBLIC "-//W3C//DTD SVG 20010904//EN"
 "http://www.w3.org/TR/2001/REC-SVG-20010904/DTD/svg10.dtd">
<svg version="1.0" xmlns="http://www.w3.org/2000/svg"
 width="1473.000000pt" height="1473.000000pt" viewBox="0 0 1473.000000 1473.000000"
 preserveAspectRatio="xMidYMid meet">
<metadata>
Created by potrace 1.14, written by Peter Selinger 2001-2017
</metadata>
<g transform="translate(0.000000,1473.000000) scale(0.100000,-0.100000)"
fill="#000000" stroke="none">
<path d="M480 14716 c0 -18 49 -163 66 -198 23 -44 17 -54 -43 -81 -118 -53
-381 -126 -453 -127 -26 0 -58 -15 -50 -24 14 -14 329 65 462 116 160 61 534
263 592 319 6 5 -104 9 -282 9 -242 0 -292 -2 -292 -14z"/>
<path d="M3380 14709 c21 -39 139 -145 207 -185 142 -84 308 -141 520 -179 49
-8 104 -14 123 -14 26 1 29 3 10 6 -148 24 -312 57 -358 72 -226 76 -397 183
-477 299 -20 28 -40 30 -25 1z"/>
<path d="M5995 14671 c-337 -152 -751 -267 -1141 -317 -82 -11 -210 -17 -351
-18 -142 -1 -218 -4 -212 -11 12 -12 321 -9 469 5 422 41 933 181 1310 358 47
22 78 41 70 41 -8 0 -73 -26 -145 -58z"/>
<path d="M6765 14708 c31 -102 132 -344 141 -336 2 3 -13 45 -35 94 -21 49
-51 128 -67 177 -15 48 -32 87 -37 87 -4 0 -5 -10 -2 -22z"/>
<path d="M7395 14672 c-50 -32 -130 -92 -180 -133 -92 -77 -245 -234 -245
-252 0 -6 44 32 98 84 149 144 267 237 411 321 60 34 63 38 36 38 -20 0 -61
-20 -120 -58z"/>
<path d="M10875 14720 c11 -5 76 -33 145 -63 233 -102 335 -148 413 -187 42
-22 77 -35 77 -31 0 11 -394 207 -512 255 -48 20 -99 36 -115 35 -25 0 -26 -1
-8 -9z"/>
<path d="M11530 14727 c0 -2 12 -32 26 -68 14 -35 45 -120 70 -189 24 -69 44
-118 44 -109 0 9 -16 61 -36 115 -62 174 -104 275 -104 251z"/>
<path d="M11524 14431 c4 -6 31 -23 59 -37 62 -31 52 -19 -17 21 -27 15 -45
22 -42 16z"/>
<path d="M4350 14265 c45 -75 91 -145 95 -145 6 0 -93 161 -108 175 -6 6 0 -8
13 -30z"/>
<path d="M4509 14023 c33 -49 74 -104 91 -123 18 -20 13 -10 -13 25 -24 33
-63 88 -86 123 -23 34 -44 62 -47 62 -3 0 22 -39 55 -87z"/>
<path d="M2988 14003 c57 -2 147 -2 200 0 53 1 7 3 -103 3 -110 0 -154 -2 -97
-3z"/>
<path d="M2708 13993 c23 -2 61 -2 85 0 23 2 4 4 -43 4 -47 0 -66 -2 -42 -4z"/>
<path d="M3358 13993 c29 -2 74 -2 100 0 26 2 2 3 -53 3 -55 0 -76 -1 -47 -3z"/>
<path d="M2563 13983 c15 -2 39 -2 55 0 15 2 2 4 -28 4 -30 0 -43 -2 -27 -4z"/>
<path d="M3548 13983 c18 -2 45 -2 60 0 15 2 0 4 -33 4 -33 0 -45 -2 -27 -4z"/>
<path d="M2453 13973 c15 -2 37 -2 50 0 12 2 0 4 -28 4 -27 0 -38 -2 -22 -4z"/>
<path d="M3673 13973 c15 -2 39 -2 55 0 15 2 2 4 -28 4 -30 0 -43 -2 -27 -4z"/>
<path d="M2203 13947 c-78 -12 -144 -25 -147 -28 -4 -3 20 -2 51 3 32 5 117
18 188 28 72 10 112 18 90 18 -22 0 -104 -10 -182 -21z"/>
<path d="M3805 13960 c28 -5 66 -8 85 -8 28 1 25 2 -15 8 -27 5 -66 8 -85 8
-28 -1 -25 -2 15 -8z"/>
<path d="M3948 13943 c12 -2 30 -2 40 0 9 3 -1 5 -23 4 -22 0 -30 -2 -17 -4z"/>
<path d="M4170 13911 c91 -16 216 -41 279 -56 62 -14 115 -24 118 -22 10 10
-395 92 -505 102 -31 3 17 -8 108 -24z"/>
<path d="M4647 13833 c10 -18 21 -33 26 -33 14 0 7 17 -19 41 l-26 24 19 -32z"/>
<path d="M4580 13828 c3 -3 21 -10 40 -17 19 -6 30 -7 25 -2 -6 5 -23 13 -40
17 -16 4 -28 5 -25 2z"/>
<path d="M1008 13609 c-54 -27 -98 -51 -98 -54 0 -6 203 85 215 96 22 22 -27
5 -117 -42z"/>
<path d="M6079 13256 c-2 -2 -177 -6 -389 -9 -887 -13 -1315 -47 -1642 -131
-150 -39 -171 -49 -191 -87 -89 -175 -157 -393 -191 -620 -10 -69 -24 -115
-49 -165 -29 -58 -64 -138 -177 -410 -5 -13 -27 -28 -52 -37 -340 -124 -499
-191 -738 -313 -200 -101 -516 -293 -535 -325 -17 -27 10 -15 101 44 231 149
483 284 734 395 174 77 453 183 467 178 7 -3 10 -13 7 -23 -4 -14 -1 -12 15 6
12 12 18 27 15 32 -3 5 -1 9 5 9 6 0 13 11 17 25 3 14 10 23 14 20 5 -3 7 3 5
12 -3 20 20 83 66 182 17 36 35 82 42 103 7 21 15 38 19 38 5 0 8 8 8 18 1 44
15 34 16 -11 1 -94 17 -275 25 -289 6 -10 25 -7 91 14 186 60 404 105 663 138
88 11 196 29 240 39 44 10 190 44 325 74 135 31 299 69 365 86 66 16 163 39
215 51 52 11 194 45 315 75 555 137 885 217 948 230 37 8 80 21 95 28 62 31
632 129 807 139 17 1 -15 5 -70 8 -148 11 -427 11 -624 0 -143 -8 -179 -7
-205 4 -113 51 -602 186 -957 265 -203 44 -502 92 -664 106 -138 12 -397 25
-499 25 -189 0 -107 12 141 21 131 4 357 13 503 18 417 16 1387 18 1575 3 155
-12 566 -53 711 -71 42 -5 94 -5 130 1 78 13 575 3 874 -17 685 -45 1489 -140
1700 -202 46 -13 229 -56 342 -79 15 -4 25 -10 22 -15 -3 -5 2 -6 10 -3 17 6
259 -64 264 -77 2 -5 8 -7 12 -4 5 3 69 -17 142 -44 73 -28 163 -60 200 -72
37 -12 66 -24 64 -28 -2 -3 6 -7 17 -8 12 0 42 -11 67 -22 l45 -21 -85 6 c-47
3 -103 8 -125 10 -22 2 -120 8 -217 14 -97 5 -198 15 -225 21 -26 6 -64 13
-83 15 -19 2 -62 12 -95 21 -33 9 -77 18 -97 21 -21 2 -38 8 -38 13 0 4 -6 6
-14 3 -8 -3 -74 4 -147 15 -74 11 -208 27 -299 37 -91 9 -167 20 -170 24 -3 4
-45 12 -93 19 -49 7 -96 16 -105 21 -10 5 -57 14 -107 19 -49 6 -169 22 -265
36 -96 14 -285 37 -420 50 -135 14 -299 32 -365 40 -66 8 -158 17 -205 21 -47
3 -113 9 -146 13 -117 14 -106 -4 31 -48 158 -51 345 -117 402 -142 37 -17 86
-20 405 -29 200 -5 407 -9 460 -9 121 0 202 -10 173 -22 -12 -5 14 -6 60 -3
85 5 420 -23 657 -56 290 -41 717 -140 998 -232 397 -130 604 -227 805 -375
56 -41 54 -38 -30 42 -128 123 -246 226 -331 291 -41 30 -74 57 -74 59 0 18
471 -218 572 -286 352 -238 564 -472 734 -813 62 -126 73 -153 56 -142 -10 6
3 -106 20 -184 12 -51 13 -53 16 -21 2 19 -4 64 -13 102 -27 107 -12 104 23
-6 56 -174 75 -285 76 -441 1 -92 -3 -146 -10 -155 -11 -13 -18 -99 -9 -99 3
0 23 26 46 58 55 74 206 230 242 249 27 13 33 13 85 -13 43 -20 93 -63 200
-169 78 -79 142 -140 142 -137 0 9 -91 113 -170 195 -78 82 -165 143 -219 153
-27 6 -40 -1 -101 -51 -38 -31 -93 -85 -122 -119 -83 -98 -79 -95 -68 -56 23
81 4 336 -36 478 -33 120 -68 220 -110 313 -191 429 -567 801 -1030 1021 -49
23 -159 79 -244 124 -85 45 -231 113 -325 150 -179 70 -587 201 -790 253 -66
17 -154 40 -195 51 -176 47 -647 122 -1065 169 -589 67 -971 90 -1565 95 -324
3 -440 8 -580 24 -188 22 -387 37 -705 52 -200 10 -558 14 -566 6z m-1511 -83
c-10 -2 -28 -2 -40 0 -13 2 -5 4 17 4 22 1 32 -1 23 -4z m-105 -10 c-7 -2 -19
-2 -25 0 -7 3 -2 5 12 5 14 0 19 -2 13 -5z m-79 -13 c-109 -22 -122 -29 -167
-88 -110 -143 -167 -243 -213 -375 -19 -57 -36 -82 -100 -150 -83 -88 -161
-194 -200 -269 -13 -27 -27 -48 -30 -48 -3 0 -3 17 0 38 4 20 7 57 7 82 0 25
7 74 14 110 57 272 79 357 116 441 64 148 70 156 147 178 147 44 368 89 432
89 l35 0 -41 -8z m-70 -39 c3 -5 -5 -11 -19 -13 -24 -5 -32 2 -18 15 9 10 31
9 37 -2z m1287 -27 c96 -17 355 -74 509 -110 238 -57 700 -188 700 -199 0 -2
-33 -2 -74 0 -73 3 -381 -26 -466 -44 -25 -6 -65 -13 -90 -17 -175 -25 -376
-73 -560 -134 -389 -129 -901 -335 -1202 -485 -49 -25 -99 -39 -195 -55 -172
-29 -376 -75 -464 -105 -40 -14 -73 -25 -74 -25 -1 0 -5 56 -9 124 -7 121 -7
125 20 177 103 206 284 401 529 571 128 89 222 137 340 175 60 20 115 39 120
43 31 23 358 83 510 93 143 10 329 6 406 -9z m3022 -179 c339 -26 657 -55 762
-71 187 -28 430 -65 480 -74 55 -10 75 -11 -320 10 -110 6 -344 15 -520 19
l-320 8 -80 30 c-44 17 -123 44 -175 61 -115 37 -105 38 173 17z m-4489 -50
c-3 -8 1 -29 10 -46 9 -18 16 -33 16 -35 0 -9 -122 -95 -127 -90 -4 3 0 6 7 6
7 0 11 3 7 6 -3 3 3 23 14 42 10 20 19 44 19 52 0 13 2 13 11 0 9 -12 10 -12
5 3 -3 11 2 32 11 48 18 30 37 40 27 14z"/>
<path d="M9995 12790 l-40 -6 35 -7 c32 -6 424 -47 452 -47 6 0 9 2 7 5 -3 2
-47 9 -99 15 -52 6 -124 15 -160 20 -36 5 -78 11 -95 14 -16 2 -37 6 -45 9 -8
2 -33 1 -55 -3z"/>
<path d="M9525 12730 c28 -5 66 -8 85 -8 32 0 31 1 -10 9 -25 4 -63 7 -85 7
-39 -1 -39 -1 10 -8z"/>
<path d="M10478 12723 c7 -3 16 -2 19 1 4 3 -2 6 -13 5 -11 0 -14 -3 -6 -6z"/>
<path d="M7523 12689 c-100 -11 -231 -39 -334 -73 -82 -27 -255 -104 -248
-110 2 -3 26 0 53 5 204 38 798 63 1181 49 138 -5 274 -12 303 -16 28 -4 52
-4 52 -1 0 11 -224 78 -346 102 -245 50 -463 64 -661 44z"/>
<path d="M5585 12023 c-44 -1 -186 -10 -315 -18 -685 -45 -911 -91 -1730 -352
-455 -144 -1001 -373 -1327 -556 l-101 -57 -7 -68 c-3 -37 -8 -84 -11 -106 -3
-29 -1 -37 8 -33 139 53 391 116 569 143 131 19 463 53 469 48 2 -3 -12 -55
-33 -117 -40 -124 -62 -208 -72 -279 -3 -27 -10 -48 -14 -48 -4 0 -29 -29 -55
-64 -52 -72 -143 -146 -316 -258 -275 -180 -619 -272 -828 -223 -134 32 -243
113 -258 191 -6 33 -8 35 -15 17 -18 -49 34 -142 110 -197 143 -103 288 -147
558 -168 163 -12 370 -3 476 22 l39 8 -6 -31 c-23 -123 -37 -273 -37 -405 l-1
-153 -55 -90 c-63 -101 -134 -259 -152 -337 -7 -28 -15 -52 -17 -52 -12 0
-114 124 -255 310 -136 180 -219 287 -319 414 -8 10 -31 38 -50 61 -19 23 -78
95 -130 160 -102 127 -109 134 -215 246 -39 41 -88 95 -108 121 l-38 46 30 60
c47 93 159 227 242 288 14 10 61 46 104 79 44 33 119 83 168 111 l89 51 5 86
c2 49 0 87 -5 87 -16 0 -313 -210 -352 -250 -3 -3 -20 -18 -39 -35 -27 -24
-31 -26 -23 -9 17 32 189 192 325 301 64 52 117 101 117 109 0 31 -244 -173
-411 -343 -113 -115 -236 -284 -279 -385 -14 -32 -28 -58 -31 -58 -3 0 -18 21
-32 48 -14 26 -60 90 -101 142 -77 97 -295 330 -308 330 -5 0 -8 -18 -8 -40 0
-47 -12 -50 -61 -17 -193 130 -771 455 -778 436 -4 -13 -23 -1 159 -98 224
-121 473 -262 490 -279 8 -8 -28 9 -80 37 -264 144 -554 280 -568 267 -3 -3
10 -12 29 -20 154 -64 375 -171 398 -192 9 -8 -33 -44 -51 -44 -11 0 -16 -4
-13 -10 8 -12 -24 -67 -43 -75 -7 -3 -74 2 -149 10 -167 19 -173 19 -173 0 0
-11 11 -15 43 -15 43 0 233 -19 457 -46 69 -9 172 -20 230 -26 l105 -11 17
-36 c20 -43 80 -279 75 -294 -2 -6 -36 43 -77 109 -40 65 -79 130 -87 142 -8
13 -17 22 -19 19 -6 -6 87 -169 132 -230 19 -26 44 -52 56 -56 17 -6 32 -39
71 -162 69 -215 69 -196 -1 -247 -32 -23 -83 -65 -113 -93 l-54 -51 55 44 c30
24 72 57 94 73 21 17 49 38 61 47 l22 18 32 -93 c18 -50 39 -110 47 -132 8
-22 45 -73 84 -115 51 -55 68 -80 64 -94 -4 -11 -2 -16 4 -12 6 3 17 -3 25
-14 7 -11 17 -17 22 -12 4 4 4 -4 1 -18 -5 -17 -4 -21 2 -11 7 10 17 5 43 -24
19 -21 33 -42 31 -47 -1 -5 2 -7 7 -4 5 3 51 -43 103 -102 270 -314 346 -398
483 -535 83 -82 202 -197 265 -255 63 -58 129 -118 145 -134 17 -15 54 -47 83
-69 32 -25 54 -51 58 -67 15 -69 35 -132 44 -137 6 -4 10 14 10 44 0 28 2 51
5 51 9 0 135 -103 135 -110 0 -4 -10 -12 -23 -17 -37 -17 -183 -113 -172 -113
6 0 46 21 90 46 44 26 142 77 219 115 l138 69 137 0 c101 0 189 8 341 31 113
17 230 33 260 35 54 5 56 4 108 -43 48 -44 70 -82 40 -69 -7 2 -30 10 -50 17
-21 7 -38 17 -38 22 0 9 -15 -7 -47 -48 -5 -5 -17 -30 -28 -55 -10 -25 -27
-57 -37 -71 -9 -15 -22 -38 -28 -53 -15 -39 -30 -31 -31 17 -1 23 -5 53 -9 67
-8 25 -8 25 -11 -5 -1 -16 -3 -48 -4 -70 -5 -125 -25 -234 -100 -540 -135
-550 -145 -617 -152 -1030 l-5 -300 -48 -60 c-26 -33 -53 -71 -60 -85 -12 -23
-12 -24 4 -10 10 8 45 47 77 86 l59 72 0 209 c0 282 23 529 65 718 7 33 16 77
19 97 6 37 17 84 76 303 50 188 80 323 80 365 0 33 23 103 40 120 8 8 27 41
57 98 25 48 30 52 63 52 19 1 60 7 91 14 49 12 57 11 75 -3 27 -22 134 -153
134 -164 0 -15 73 -96 82 -91 4 3 8 1 8 -4 0 -5 9 -12 19 -15 14 -3 18 -1 14
9 -3 7 -10 12 -16 11 -7 -1 -11 4 -9 11 1 8 -7 16 -18 19 -11 3 -20 14 -20 24
0 10 -4 21 -10 24 -6 4 -7 -1 -4 -12 5 -14 4 -15 -4 -4 -6 8 -8 21 -4 29 3 10
1 13 -6 8 -7 -4 -15 0 -19 11 -3 10 -17 33 -30 51 -13 17 -22 32 -19 32 3 0
19 -19 36 -42 16 -22 30 -38 30 -34 0 4 15 -10 33 -30 17 -21 32 -41 32 -46 0
-5 5 -12 10 -16 12 -8 55 -67 55 -75 0 -3 -37 -33 -82 -67 -46 -34 -90 -67
-100 -75 -46 -37 -148 -95 -321 -181 -197 -98 -224 -114 -193 -114 21 0 333
142 390 177 108 68 296 196 306 209 7 7 18 14 24 14 6 0 17 9 24 20 7 11 19
20 27 20 18 0 18 -2 3 -35 -8 -19 -14 -22 -20 -13 -7 10 -8 9 -5 -2 3 -10 14
-14 32 -12 l28 3 -7 -70 c-4 -45 -2 -71 4 -71 5 0 10 -8 10 -17 0 -14 -2 -15
-9 -4 -5 8 -11 -46 -15 -135 -4 -82 -9 -173 -13 -203 -4 -36 -2 -52 5 -47 6 3
12 0 15 -6 2 -7 8 -9 13 -5 5 5 1 14 -9 21 -15 12 -16 21 -8 67 l9 54 -1 -47
c0 -25 4 -52 10 -60 6 -7 11 -29 11 -48 0 -28 -2 -31 -8 -15 -8 17 -9 16 -9
-8 -1 -16 -5 -26 -11 -22 -5 3 -10 2 -10 -3 0 -6 8 -13 18 -17 15 -6 15 -8 1
-18 -9 -7 -19 -28 -22 -47 -6 -33 -6 -34 9 -15 15 19 16 18 10 -15 -6 -30 -5
-32 5 -15 7 11 16 47 20 80 6 48 7 42 3 -30 -2 -49 -7 -147 -11 -217 -4 -83
-10 -128 -17 -128 -8 0 -8 -3 0 -8 7 -4 17 -56 24 -117 19 -181 28 -196 274
-420 6 -5 63 -57 126 -115 148 -135 280 -245 385 -320 19 -14 33 -30 30 -37
-2 -7 2 -10 11 -6 10 4 17 -2 21 -16 3 -11 10 -21 15 -21 16 0 78 -32 78 -40
0 -4 -37 -11 -82 -15 -44 -3 -91 -10 -103 -15 -12 -4 -44 -11 -71 -14 -27 -3
-74 -10 -104 -17 -30 -6 -74 -15 -96 -19 -23 -5 -68 -18 -100 -30 -33 -11 -94
-31 -136 -45 -102 -31 -289 -111 -333 -141 -20 -13 -38 -24 -42 -24 -3 0 -21
-14 -40 -30 -22 -20 -41 -29 -56 -26 -12 3 -40 8 -62 11 -58 9 -203 54 -210
66 -4 5 -15 9 -26 9 -22 0 -281 -88 -374 -127 -89 -38 -178 -60 -290 -72 -55
-7 -131 -16 -170 -22 -38 -5 -119 -16 -179 -25 -59 -8 -110 -14 -111 -12 -2 2
4 21 12 43 43 113 53 147 67 229 17 100 27 119 112 208 70 75 161 193 226 293
90 141 63 113 -62 -62 -44 -61 -124 -161 -179 -221 -105 -115 -107 -120 -116
-217 -9 -109 -31 -171 -101 -295 -38 -68 -75 -125 -82 -127 -20 -8 -42 17 -40
46 2 31 -8 51 -26 51 -19 0 -23 32 -19 151 5 174 55 528 127 921 38 202 28
188 138 188 148 0 451 -21 478 -34 32 -14 38 -62 14 -108 -14 -28 -15 -31 -2
-20 17 13 33 58 29 79 -1 8 4 10 14 7 25 -10 17 10 -17 43 l-33 31 -240 12
c-132 7 -316 10 -410 8 -169 -3 -172 -4 -365 -55 -181 -49 -387 -116 -590
-192 -174 -66 -197 -75 -268 -108 -41 -18 -77 -33 -82 -33 -4 0 -13 -7 -20
-16 -10 -11 -1 -10 41 7 49 19 222 84 467 175 108 39 525 166 625 188 92 21
120 21 113 -1 -90 -310 -156 -771 -156 -1094 l0 -99 -40 0 c-21 0 -101 13
-177 29 -325 69 -686 109 -1268 141 -399 21 -357 22 -412 -12 -26 -16 -129
-110 -228 -207 -120 -118 -194 -183 -222 -195 -24 -11 -43 -23 -43 -28 0 -12
14 -10 36 7 36 27 36 15 0 -25 l-36 -40 0 -155 0 -156 70 103 c38 57 94 135
125 173 90 113 265 295 328 342 l59 43 187 0 c223 0 377 -11 736 -51 306 -34
838 -99 842 -103 26 -25 -500 -291 -887 -448 -425 -173 -745 -274 -1422 -449
l-38 -10 0 -104 c0 -82 3 -105 13 -105 23 0 280 77 522 157 518 170 937 335
1215 479 l125 64 -110 -111 c-60 -61 -180 -176 -265 -255 l-155 -144 -150 -59
c-169 -67 -441 -155 -620 -202 -66 -17 -160 -44 -210 -59 -49 -15 -148 -42
-220 -60 -72 -18 -133 -36 -138 -40 -4 -3 -6 -90 -5 -193 l3 -187 50 61 c77
94 324 320 427 392 81 56 108 69 206 97 149 42 418 131 511 170 41 16 76 29
78 27 1 -2 -54 -48 -124 -103 -70 -54 -167 -133 -217 -174 -50 -42 -204 -152
-343 -245 -379 -255 -381 -256 -488 -346 l-100 -84 -2 -95 -3 -95 67 75 c143
161 361 358 544 492 41 31 113 87 160 125 46 38 113 86 149 108 123 73 625
388 698 437 39 27 96 77 125 112 28 34 97 112 151 172 55 60 139 157 188 217
99 119 118 128 156 77 16 -21 31 -30 50 -30 28 0 28 0 -99 -257 -258 -523
-600 -1317 -734 -1703 -30 -87 -64 -219 -95 -372 -42 -203 -49 -257 -51 -366
-2 -146 0 -152 96 -287 67 -95 122 -153 230 -244 99 -84 166 -128 325 -216 69
-38 177 -106 240 -152 228 -163 369 -233 512 -253 153 -22 395 28 604 125 116
53 127 64 183 181 28 59 51 111 51 116 0 5 -21 -6 -47 -25 -131 -95 -404 -193
-593 -212 -217 -22 -585 85 -820 240 -290 191 -437 352 -555 607 -66 143 -133
417 -118 481 18 72 151 409 253 637 126 283 229 500 229 487 1 -4 -17 -69 -39
-145 -54 -188 -110 -420 -110 -456 0 -66 187 -210 403 -311 302 -141 828 -263
1027 -239 76 9 158 41 176 69 41 63 54 376 24 605 -26 204 -103 544 -169 750
-37 114 -39 125 -23 134 15 9 15 11 -6 15 -18 5 -33 32 -77 141 -31 75 -53
142 -49 152 3 12 1 16 -8 14 -8 -3 -35 40 -76 123 -62 125 -210 380 -285 491
-44 65 -41 67 74 45 128 -24 353 -37 592 -33 119 2 217 2 217 0 0 -1 -40 -51
-88 -110 -109 -133 -302 -372 -316 -392 -34 -48 49 41 117 125 45 55 118 143
162 195 214 251 395 477 420 523 11 20 23 37 27 37 12 0 -3 63 -20 83 -18 20
-75 22 -169 6 -91 -16 -71 -22 26 -9 98 13 113 10 128 -30 15 -40 -4 -83 -72
-166 -27 -33 -59 -73 -70 -89 -18 -24 -24 -26 -41 -17 -15 8 -34 6 -79 -9 -52
-17 -90 -19 -379 -20 -304 -1 -447 8 -538 32 -40 10 -46 20 -25 37 7 6 24 34
36 61 l24 49 81 11 c44 6 171 22 281 36 242 30 306 43 410 86 44 17 143 53
220 79 l140 47 40 -17 c55 -23 208 -56 330 -69 195 -22 585 -8 692 24 26 8 60
15 74 15 40 0 57 20 75 89 11 46 14 79 8 120 l-8 56 -10 -80 c-6 -44 -13 -78
-16 -76 -3 3 -18 -8 -35 -24 -16 -15 -23 -25 -15 -20 8 4 6 -2 -6 -14 -26 -28
-99 -47 -244 -66 -119 -15 -381 -19 -460 -6 l-45 7 44 28 c39 25 137 71 286
136 22 10 81 30 130 45 50 15 97 31 106 35 23 12 270 63 275 57 3 -2 9 -76 14
-163 5 -88 12 -173 16 -191 9 -45 -31 -90 -191 -219 -137 -111 -141 -114 -247
-195 -37 -28 -83 -72 -101 -98 -84 -117 -214 -256 -291 -312 -45 -33 -88 -65
-96 -72 -31 -28 -324 -190 -510 -282 -193 -95 -258 -131 -145 -80 33 15 83 36
110 48 28 11 137 65 244 119 106 54 197 98 201 98 4 0 12 -53 19 -117 6 -65
16 -147 21 -183 30 -212 50 -393 50 -445 0 -43 7 -74 24 -110 28 -57 113 -242
209 -455 36 -80 83 -183 105 -230 22 -47 65 -139 95 -205 108 -232 92 -210
173 -250 l73 -36 -37 -53 c-44 -62 -89 -123 -403 -544 -402 -540 -733 -931
-1143 -1349 l-159 -163 455 0 455 0 53 125 c29 69 55 123 57 121 4 -4 -49
-157 -77 -224 -7 -16 -6 -22 4 -22 8 0 37 66 76 175 34 96 66 175 71 175 5 0
35 -14 67 -31 36 -19 48 -23 32 -10 -14 11 -42 28 -63 37 -43 20 -43 19 9 134
18 41 67 149 107 240 122 270 251 539 258 534 13 -7 27 22 113 233 48 117 116
268 150 335 35 68 71 144 81 170 l17 47 32 -14 c90 -40 192 -76 207 -72 28 7
44 -102 44 -298 -1 -158 -2 -176 -28 -250 -14 -44 -44 -111 -66 -148 -22 -37
-36 -65 -32 -62 16 9 77 109 95 153 9 24 40 71 68 105 111 133 210 320 268
503 52 163 48 155 49 107 1 -24 4 -43 7 -43 3 0 17 15 32 32 48 59 156 169
217 222 l59 51 -27 -47 c-32 -56 -161 -310 -213 -423 l-38 -80 -7 40 c-4 25
-5 14 -2 -30 17 -280 158 -680 335 -952 105 -162 308 -387 408 -452 21 -14 5
6 -41 51 -70 67 -78 80 -108 163 -18 50 -45 140 -59 200 -25 105 -26 122 -25
380 0 179 5 300 15 360 l14 90 12 -95 c41 -308 131 -576 256 -764 62 -93 85
-116 179 -180 73 -49 114 -62 57 -18 -60 47 -156 152 -189 207 -111 182 -159
414 -162 765 -1 211 -1 217 30 333 34 128 76 237 147 380 99 198 227 362 468
602 163 162 255 228 311 223 l30 -3 18 -115 c26 -169 23 -160 56 -160 21 0 39
-11 65 -40 20 -22 36 -46 36 -54 0 -20 -51 -55 -90 -63 l-32 -6 6 -51 c3 -28
6 -155 6 -282 l0 -232 47 -7 c25 -4 105 -22 177 -40 86 -22 133 -30 137 -23 4
6 10 53 14 105 4 51 10 106 14 121 7 24 8 21 14 -23 11 -84 49 -255 57 -255 3
0 3 24 -1 53 -11 78 -10 336 1 483 21 260 75 521 152 737 20 57 24 60 182 179
454 342 766 617 1242 1092 248 249 505 545 691 796 42 57 101 121 147 159 42
35 76 65 76 67 0 2 -78 -53 -172 -123 -95 -70 -205 -150 -243 -177 -104 -75
-183 -137 -350 -271 -152 -123 -228 -178 -595 -435 -113 -79 -232 -164 -266
-190 -95 -73 -169 -114 -340 -191 -232 -104 -596 -243 -617 -236 -11 3 160
134 318 242 55 38 170 121 255 185 85 64 215 156 288 204 171 113 329 229 511
374 80 64 148 119 151 122 8 9 777 651 814 680 133 103 473 433 592 575 172
204 288 375 381 557 79 155 73 161 -39 37 -40 -44 -185 -196 -323 -337 -753
-774 -948 -949 -1555 -1396 -257 -190 -437 -305 -700 -450 -129 -71 -305 -168
-390 -216 -154 -87 -230 -125 -325 -161 -27 -11 -59 -24 -70 -29 -35 -16 -257
-90 -331 -110 -39 -11 -83 -24 -98 -30 -27 -10 -28 -11 -12 -35 25 -38 20 -52
-36 -90 -49 -32 -54 -34 -65 -18 -7 9 -13 33 -13 52 1 44 37 75 202 172 62 37
177 105 254 152 78 47 182 107 230 133 49 26 134 74 189 107 95 57 118 70 245
140 169 93 402 241 491 312 24 19 48 35 52 35 5 0 34 22 65 49 31 27 89 69
128 94 39 25 86 58 105 74 19 16 99 77 179 135 177 130 337 262 450 372 47 45
184 158 305 251 274 210 663 540 651 552 -2 2 -96 -70 -209 -161 -114 -91
-228 -179 -254 -197 -26 -18 -82 -58 -123 -90 -72 -54 -644 -440 -685 -462
-19 -10 -19 -9 -5 9 8 10 17 21 20 24 3 3 23 25 44 50 22 25 119 128 216 230
173 181 216 228 349 380 36 41 113 121 171 177 58 56 101 103 96 103 -4 0 -56
-42 -115 -93 -58 -51 -128 -110 -156 -131 -91 -70 -346 -292 -485 -422 -30
-29 -84 -76 -120 -105 -36 -29 -105 -89 -155 -134 -149 -133 -315 -276 -315
-271 0 36 120 247 242 426 114 168 117 172 119 123 1 -16 5 -39 10 -53 6 -17
7 -4 4 43 -4 67 -4 70 36 123 157 213 535 605 814 846 99 85 187 163 195 173
41 49 181 156 474 363 33 23 54 42 48 42 -20 0 -305 -70 -331 -81 -90 -38
-585 -116 -886 -139 l-120 -9 135 5 c227 8 524 47 728 94 94 22 122 25 122 10
0 -5 -7 -10 -15 -10 -9 0 -27 -8 -41 -17 -35 -22 -251 -278 -275 -325 -10 -20
-52 -65 -91 -99 -165 -140 -437 -429 -682 -724 -60 -71 -112 -134 -116 -138
-4 -5 -17 45 -30 110 -12 65 -28 138 -36 163 l-14 45 6 -45 c3 -25 16 -94 30
-155 13 -60 24 -118 24 -129 0 -10 -15 -39 -33 -65 -76 -104 -146 -211 -199
-301 -57 -97 -148 -281 -148 -299 0 -5 -60 -61 -132 -124 -73 -63 -200 -183
-282 -267 l-150 -153 -360 8 c-253 5 -449 3 -656 -7 -372 -17 -642 -16 -740 1
-191 34 -487 155 -775 319 -197 112 -562 369 -725 512 -36 31 -110 92 -165
136 -142 111 -382 334 -423 391 -37 52 -52 131 -62 323 -5 102 -7 230 -5 285
3 55 7 159 10 230 9 190 33 501 44 565 6 30 21 109 35 175 13 66 38 194 55
285 17 91 45 213 61 270 17 58 44 159 61 225 57 224 138 410 254 585 103 155
203 254 475 470 58 46 193 158 300 250 222 189 294 244 355 271 43 19 43 19
105 -3 l62 -23 24 -65 c30 -83 30 -91 -8 -115 -38 -24 -135 -146 -184 -233
-34 -59 -78 -181 -69 -190 2 -3 14 12 26 32 12 20 23 35 26 33 7 -7 -50 -116
-58 -111 -6 3 -29 -78 -29 -102 0 -16 19 10 25 33 13 55 151 250 221 314 50
45 134 103 154 106 26 4 230 -126 230 -146 0 -4 -30 -26 -66 -47 -196 -115
-345 -348 -361 -563 -6 -84 -5 -88 21 -116 l27 -28 -7 64 c-5 57 -2 76 30 167
44 129 81 193 149 265 86 89 163 97 306 32 100 -47 174 -115 122 -115 -26 0
-81 -20 -81 -30 0 -4 9 -6 20 -3 12 3 33 -5 54 -21 19 -14 38 -26 42 -26 4 0
13 -8 20 -17 7 -10 16 -15 19 -11 4 4 0 14 -9 23 -9 9 -16 21 -16 26 0 5 -11
9 -24 9 -14 0 -28 5 -32 11 -4 8 0 9 15 4 15 -5 21 -2 21 9 0 9 5 16 10 16 16
0 12 19 -11 51 -11 16 -18 33 -14 38 3 5 0 13 -6 17 -8 4 -9 3 -5 -4 4 -7 3
-12 -3 -12 -10 0 -46 41 -55 63 -3 9 -7 8 -14 -2 -7 -9 -11 -10 -14 -1 -2 6
-22 14 -46 17 -23 3 -42 9 -42 13 0 4 -10 11 -22 14 l-23 6 23 13 c13 8 45 14
72 16 47 2 48 2 97 -61 70 -89 157 -216 181 -264 56 -110 105 -404 68 -404
-10 0 -12 11 -8 46 2 25 0 55 -6 67 -6 12 -13 31 -15 42 -3 11 -5 2 -6 -20 -3
-79 -51 -178 -111 -229 -127 -106 -372 -124 -533 -38 -26 14 -50 23 -53 19 -3
-3 6 -21 20 -40 52 -68 143 -92 320 -84 169 7 259 35 384 118 24 16 45 29 48
29 2 0 4 -23 4 -50 0 -45 -5 -55 -39 -93 -113 -124 -283 -347 -263 -347 4 0
27 31 52 67 25 37 89 112 143 168 l98 100 -6 -75 c-3 -41 -8 -93 -11 -115 -4
-31 -3 -37 6 -25 9 12 10 10 5 -10 -4 -14 -20 -37 -36 -51 -33 -29 -38 -45
-10 -29 27 14 31 13 31 -7 0 -15 2 -14 14 3 19 25 31 12 16 -18 -12 -22 -11
-22 5 -6 10 9 19 27 20 39 2 34 98 81 313 156 191 66 208 70 196 52 -8 -14 44
18 76 47 30 26 358 195 480 246 74 31 209 81 360 132 l45 15 -49 -6 c-74 -9
-208 -48 -199 -58 4 -4 3 -5 -3 -2 -16 9 -75 -3 -68 -14 3 -5 -2 -6 -10 -3 -9
4 -16 1 -16 -6 0 -7 -8 -10 -20 -7 -22 6 -28 -8 -7 -16 8 -4 7 -6 -3 -6 -9 -1
-22 5 -29 12 -10 10 -12 9 -9 -3 2 -9 -6 -16 -21 -18 -19 -3 -21 -6 -10 -13
11 -7 10 -9 -5 -9 -10 0 -34 -9 -53 -21 -18 -12 -40 -18 -49 -15 -8 3 -12 2
-9 -4 9 -14 -32 -31 -60 -24 -34 9 -31 18 11 33 19 7 33 15 31 18 -3 3 -27 -6
-54 -20 -106 -54 -153 -82 -143 -85 6 -2 8 -8 5 -13 -4 -5 1 -6 10 -2 14 5 14
8 3 15 -10 7 -8 8 6 6 23 -3 25 -19 5 -30 -22 -11 -102 -48 -106 -48 -3 0 -2
4 2 9 3 5 0 13 -6 17 -8 4 -9 3 -5 -4 4 -7 3 -12 -3 -12 -6 0 -8 -6 -5 -13 3
-8 -2 -14 -10 -14 -8 0 -13 4 -10 9 12 19 -15 6 -37 -19 -13 -15 -16 -21 -6
-14 9 8 20 11 23 8 3 -3 -4 -11 -16 -17 -12 -6 -24 -9 -27 -6 -3 3 -18 -3 -32
-13 -14 -10 -96 -42 -181 -70 -85 -28 -167 -58 -182 -66 -38 -22 -51 -20 -37
6 14 28 38 197 39 278 0 60 2 65 38 98 131 121 352 279 603 430 125 75 203
115 393 200 148 66 108 61 -54 -8 -65 -27 -122 -49 -127 -49 -20 0 -82 157
-66 169 15 13 316 110 388 126 195 42 264 55 429 80 167 24 248 44 187 45 -13
0 -52 -4 -85 -10 -34 -5 -106 -17 -161 -25 -191 -31 -483 -100 -705 -167 -36
-10 -72 -19 -80 -20 -8 0 -22 -6 -30 -13 -8 -7 -53 -32 -100 -55 -237 -118
-431 -265 -577 -435 l-52 -59 -6 29 c-32 157 -89 334 -151 472 -3 6 7 18 23
27 15 8 24 15 20 16 -5 0 -17 -5 -28 -10 -10 -6 -19 -7 -19 -2 0 10 111 89
205 144 33 20 107 55 165 78 58 23 135 57 173 77 37 19 67 32 67 29 0 -4 17 3
37 14 45 24 49 24 57 4 5 -13 1 -15 -21 -9 -16 4 -25 4 -21 0 3 -4 24 -11 44
-15 47 -11 62 5 31 31 -14 11 -19 21 -12 27 13 12 100 34 240 63 136 27 167
42 70 34 -106 -8 -146 -14 -192 -26 -23 -6 -49 -9 -58 -6 -8 4 -15 2 -15 -3 0
-6 -5 -10 -11 -10 -5 0 -7 5 -4 10 3 6 1 10 -4 10 -6 0 -11 -4 -11 -9 0 -12
-49 -20 -56 -10 -9 16 -37 10 -30 -6 3 -9 0 -15 -9 -15 -8 0 -15 6 -15 13 0 7
-3 8 -8 2 -4 -5 -16 -11 -27 -11 -11 -1 -59 -9 -107 -19 -86 -18 -91 -18 -284
4 -108 13 -208 27 -223 32 -14 5 -107 24 -206 43 -212 41 -439 99 -428 110 4
4 0 4 -9 1 -15 -6 -87 12 -158 41 -19 7 -51 17 -70 22 l-35 9 40 17 c39 17
138 43 203 53 27 4 293 -10 605 -33 79 -6 630 7 592 13 -53 9 -65 15 -95 43
-48 45 -53 34 -7 -17 l20 -23 -214 6 c-118 3 -288 10 -379 15 -91 6 -179 10
-197 10 -17 -1 -82 3 -145 9 -255 25 -841 8 -1083 -30 -73 -11 -272 -57 -285
-65 -6 -3 -10 -4 -10 -1 0 16 174 89 310 130 122 36 314 76 367 76 4 0 2 5 -3
10 -10 10 -289 -20 -340 -35 -31 -10 37 27 96 53 319 135 446 178 556 188 l79
7 -37 -29 c-20 -16 -52 -41 -70 -55 -18 -14 -62 -36 -98 -49 -103 -36 -113
-40 -108 -45 2 -2 101 27 219 66 117 39 266 86 329 104 63 18 153 45 200 60
117 36 348 91 510 120 263 49 748 98 1060 108 47 2 2 4 -100 5 -287 3 -794
-20 -1065 -49 -377 -40 -742 -95 -929 -141 l-129 -32 -191 17 c-306 27 -871
119 -899 147 -8 7 62 57 123 87 8 4 52 31 98 60 147 95 319 172 662 296 173
63 439 164 477 182 17 8 35 15 41 15 5 0 72 20 148 45 204 66 620 174 754 195
36 5 117 19 180 30 141 25 586 50 900 51 124 0 218 4 210 8 -18 10 -183 27
-405 42 -88 5 -212 14 -275 19 -63 5 -216 10 -340 10 -124 0 -304 6 -400 15
-289 24 -1181 40 -1525 28z m-115 -33 c11 -7 6 -10 -20 -10 -75 0 -423 -63
-535 -97 -359 -108 -746 -265 -890 -361 -71 -48 -228 -183 -366 -314 -175
-166 -386 -442 -478 -626 -32 -62 -81 -178 -81 -189 0 -2 30 28 68 65 99 101
207 157 451 233 364 114 751 174 1176 184 116 2 217 5 225 6 58 7 65 -12 13
-30 -53 -19 -261 -121 -368 -181 -49 -27 -97 -53 -105 -57 -24 -11 -213 -124
-243 -145 -16 -11 -27 -22 -25 -24 2 -1 55 15 118 37 233 81 601 187 831 238
l97 22 36 -25 c20 -14 63 -30 94 -36 31 -6 71 -14 87 -19 l30 -8 -35 -6 c-19
-4 -93 -16 -165 -27 -432 -69 -901 -174 -1149 -259 -49 -17 -96 -31 -103 -31
-21 0 -191 -139 -313 -255 -217 -206 -384 -405 -500 -595 -119 -195 -226 -454
-261 -635 -15 -76 -19 -366 -6 -425 l7 -35 -26 38 c-208 305 -324 669 -323
1007 0 85 2 101 12 86 30 -48 144 -170 195 -209 71 -54 87 -63 137 -71 l40 -6
-31 14 c-78 35 -134 128 -178 299 -39 149 -48 266 -31 375 8 51 21 109 28 130
15 43 73 134 113 178 24 26 27 35 25 99 -4 138 35 372 89 535 41 123 93 242
124 282 14 19 26 41 26 48 0 38 76 144 165 228 102 98 284 233 341 254 19 6
34 15 34 18 0 17 185 87 355 134 141 38 404 88 555 105 52 6 157 18 233 27
110 12 371 35 492 42 11 1 27 -3 35 -8z m1156 -110 c117 -11 241 -37 250 -51
3 -5 4 -9 2 -9 -2 0 -77 -12 -168 -25 -620 -95 -783 -118 -845 -118 -57 0
-223 31 -314 59 -28 9 5 23 125 53 153 39 264 56 489 77 99 9 182 18 184 20 8
8 168 4 277 -6z m-1536 -179 c0 -17 -27 -29 -117 -51 -51 -13 -93 -27 -93 -32
0 -4 -3 -7 -7 -6 -10 2 -63 -11 -88 -22 -46 -20 -198 -70 -202 -66 -6 6 305
128 402 157 102 32 105 32 105 20z m10 -141 c-113 -27 -259 -63 -325 -80 -174
-45 -162 -42 -145 -32 18 11 360 125 440 146 30 8 96 15 145 15 l90 0 -205
-49z m-1551 2 c-13 -9 -26 -15 -28 -13 -2 1 -7 -3 -11 -9 -5 -9 -10 -9 -14 -1
-4 6 4 13 18 17 14 3 31 12 37 20 7 8 14 12 17 9 3 -3 -5 -13 -19 -23z m-60
-46 c-2 -2 -15 -7 -29 -10 l-25 -7 25 15 c21 12 42 14 29 2z m-64 -50 c-16
-13 -32 -22 -35 -19 -6 5 41 42 55 43 6 0 -3 -11 -20 -24z m-88 -12 c-3 -3
-12 -4 -19 -1 -8 3 -5 6 6 6 11 1 17 -2 13 -5z m36 -1 c-7 -2 -13 -9 -13 -14
0 -6 5 -7 12 -3 7 5 8 3 3 -5 -5 -9 -11 -9 -17 -3 -12 12 -2 32 15 31 9 0 9
-2 0 -6z m-32 -60 c-12 -20 -14 -14 -5 12 4 9 9 14 11 11 3 -2 0 -13 -6 -23z
m-11 -28 c0 -1 -10 -10 -22 -21 -13 -10 -18 -12 -11 -5 6 7 9 20 6 27 -4 10 0
12 11 8 9 -3 16 -7 16 -9z m-65 -95 c-3 -5 -12 -10 -18 -10 -7 0 -6 4 3 10 19
12 23 12 15 0z m935 6 c0 -3 -20 -25 -44 -50 -24 -24 -55 -67 -67 -95 l-23
-50 -148 3 c-83 2 -166 -2 -188 -7 -73 -20 -63 20 13 57 60 29 308 118 314
112 2 -2 30 5 61 15 58 18 82 23 82 15z m-963 -41 c-7 -7 -16 -10 -22 -7 -5 3
-4 7 3 10 7 2 10 8 7 13 -4 5 1 6 9 3 12 -5 13 -9 3 -19z m-19 -45 c-7 -10
-16 -16 -22 -13 -5 4 -7 -1 -3 -11 8 -21 -38 -116 -56 -116 -8 0 -8 3 2 9 11
7 10 10 -5 14 -16 4 -16 5 4 6 12 0 21 4 20 9 -1 4 6 22 15 40 10 17 13 32 7
32 -5 0 -10 -5 -10 -12 0 -6 -3 -8 -7 -5 -3 4 6 20 20 35 15 16 24 32 20 36
-4 4 0 4 9 1 14 -6 15 -10 6 -25z m-75 0 c3 -11 1 -18 -4 -14 -5 3 -9 12 -9
20 0 20 7 17 13 -6z m25 -5 c-3 -3 -9 2 -12 12 -6 14 -5 15 5 6 7 -7 10 -15 7
-18z m-238 1 c0 -3 -4 -8 -10 -11 -5 -3 -10 -1 -10 4 0 6 5 11 10 11 6 0 10
-2 10 -4z m-2260 -401 c14 -4 41 -19 60 -32 31 -22 32 -24 10 -20 -14 4 -56 9
-95 12 -38 3 -95 11 -126 17 -50 9 -56 13 -56 34 0 28 -6 28 69 8 33 -8 62
-13 64 -11 3 2 -24 15 -58 27 -35 13 -69 28 -75 33 -7 5 -20 7 -28 3 -9 -3
-14 -2 -12 2 2 4 7 15 10 24 6 16 19 11 109 -36 57 -30 114 -57 128 -61z
m4260 -77 l18 -38 -41 -10 c-23 -6 -55 -15 -71 -20 -15 -6 -32 -8 -36 -5 -5 3
-10 2 -12 -3 -1 -4 -36 -17 -75 -29 -40 -11 -70 -17 -67 -12 3 5 -11 0 -32
-11 -20 -12 -50 -22 -65 -22 -16 -1 -26 -4 -24 -8 2 -4 -1 -7 -8 -7 -7 0 -21
-4 -32 -8 -11 -4 -3 5 18 19 20 15 42 24 49 20 7 -4 8 -3 4 4 -4 7 -1 12 8 12
8 0 16 4 18 8 6 16 99 61 116 56 12 -4 13 -3 4 3 -9 7 -2 14 23 26 42 20 49
21 39 5 -4 -7 -3 -8 5 -4 6 4 9 12 6 17 -6 8 8 13 28 10 4 0 7 4 7 10 0 6 7 8
16 5 8 -3 12 -2 9 4 -3 6 -1 10 4 10 20 0 26 2 46 16 16 11 21 12 24 2 2 -7
12 -30 21 -50z m790 -66 c0 -5 -51 -34 -112 -65 -62 -31 -151 -82 -198 -112
-47 -31 -93 -58 -102 -61 -10 -4 -16 -10 -13 -14 3 -5 -8 -14 -25 -22 -16 -7
-30 -16 -30 -20 0 -5 -5 -8 -10 -8 -6 0 -28 -11 -50 -25 -22 -14 -40 -22 -40
-18 0 5 -4 3 -8 -3 -11 -17 -120 -76 -130 -70 -4 2 -14 0 -22 -6 -12 -8 -11
-9 5 -4 16 4 15 2 -5 -12 -51 -35 -116 -101 -135 -139 -11 -21 -24 -41 -30
-45 -6 -5 -6 -11 2 -19 8 -8 15 -4 26 17 25 48 57 69 172 113 61 23 124 49
142 57 31 14 63 10 63 -7 0 -5 -3 -9 -7 -9 -7 0 -221 -136 -248 -157 -26 -21
-64 -35 -76 -28 -7 5 -10 4 -6 -1 3 -6 -15 -23 -41 -39 -26 -16 -49 -32 -52
-35 -3 -3 -25 -15 -50 -28 -25 -12 -67 -36 -95 -51 -72 -42 -74 -38 -14 22 55
54 84 95 75 104 -6 6 -116 -88 -116 -99 0 -5 -5 -8 -11 -8 -7 0 -18 -8 -25
-17 -7 -10 -13 -13 -14 -8 0 6 33 46 73 91 39 45 81 92 91 105 11 13 45 54 75
90 31 36 69 81 84 100 34 41 138 184 152 208 26 46 89 131 97 131 13 0 10 -8
-28 -61 -33 -47 -39 -79 -15 -79 5 0 16 8 23 18 7 10 85 55 173 99 137 68 172
82 241 92 45 6 86 11 90 10 5 -1 16 1 24 4 8 3 31 8 50 10 19 2 38 5 43 5 4 1
7 -2 7 -6z m-4620 -134 c0 -7 -14 2 -31 20 -16 17 -36 32 -43 32 -16 0 -29 27
-19 42 3 7 1 8 -5 4 -8 -4 -12 0 -12 11 0 13 16 2 55 -39 30 -31 55 -62 55
-70z m-111 69 c0 -9 -2 -8 -6 1 -2 6 -10 9 -15 6 -7 -4 -8 -2 -4 5 9 13 26 5
25 -12z m4341 -4 c-159 -76 -195 -92 -198 -88 -2 2 8 21 23 43 25 38 31 41 98
52 40 6 77 13 82 15 6 2 19 4 30 4 11 0 -5 -12 -35 -26z m635 -210 c-11 -2
-58 -11 -105 -20 -92 -17 -246 -55 -323 -80 -27 -8 -50 -13 -53 -10 -3 2 18
23 45 46 51 43 84 53 216 64 58 5 244 5 220 0z m-1697 -35 c-3 -7 -14 -14 -26
-16 -12 -2 -22 -8 -22 -13 0 -6 -9 -7 -20 -4 -14 4 -20 2 -18 -7 2 -8 -6 -13
-21 -13 -14 0 -26 -6 -29 -13 -2 -7 -8 -10 -13 -7 -5 4 -19 -3 -31 -14 -12
-12 -30 -21 -40 -21 -10 0 -18 -6 -18 -14 0 -13 -27 -31 -42 -28 -5 1 -8 -5
-8 -13 0 -8 -6 -12 -14 -9 -7 3 -16 -2 -19 -10 -4 -9 -12 -16 -19 -16 -7 0 4
16 25 36 21 19 42 32 47 29 6 -3 10 1 10 9 0 8 14 23 30 33 17 9 30 21 30 25
0 4 6 8 14 8 8 0 16 4 18 9 3 7 139 58 161 60 5 1 7 -5 5 -11z m-1505 -53 c-3
-9 -8 -14 -10 -11 -3 3 -2 9 2 15 9 16 15 13 8 -4z m-29 -10 c3 -8 2 -14 -2
-14 -17 3 -31 -2 -44 -14 -7 -7 -22 -19 -33 -26 -19 -11 -19 -12 4 -5 16 4 21
3 17 -5 -4 -6 -18 -10 -31 -9 -22 2 -23 4 -9 19 8 9 30 25 49 35 19 10 35 22
35 26 0 13 7 9 14 -7z m3276 6 c0 -3 -28 -17 -62 -30 -96 -37 -371 -179 -486
-251 -138 -86 -253 -174 -351 -266 -45 -42 -81 -73 -81 -70 0 18 80 162 133
239 108 158 132 180 249 220 313 108 598 183 598 158z m452 -102 c24 -13 176
-47 373 -84 225 -42 288 -53 355 -60 36 -4 121 -15 190 -26 69 -10 153 -19
188 -19 34 0 62 -4 62 -10 0 -5 -7 -10 -15 -10 -8 0 -15 -3 -15 -7 0 -5 -12
-9 -28 -10 -57 -3 -425 -209 -508 -284 -20 -19 -21 -19 -42 18 -11 21 -44 60
-71 88 -49 47 -69 94 -36 81 8 -3 15 -1 15 3 0 5 -7 11 -15 15 -8 3 -15 12
-15 21 0 9 -6 15 -12 13 -7 -1 -47 20 -88 47 -41 28 -82 54 -90 58 -27 15 44
-44 103 -84 51 -35 56 -42 46 -60 -12 -22 -14 -21 -124 66 -22 17 -69 47 -105
67 -184 99 -370 214 -370 227 0 10 170 -33 202 -50z m-582 0 c-19 -17 -64 -50
-100 -74 -36 -25 -94 -73 -130 -107 -102 -99 -224 -200 -228 -189 -7 20 39
104 89 166 47 59 61 68 219 149 93 47 173 86 177 86 4 -1 -8 -14 -27 -31z
m-3275 11 c-3 -5 -12 -10 -18 -10 -7 0 -6 4 3 10 19 12 23 12 15 0z m3685 -5
c0 -8 -2 -15 -4 -15 -2 0 -6 7 -10 15 -3 8 -1 15 4 15 6 0 10 -7 10 -15z
m-3740 -35 c10 -6 11 -10 3 -10 -7 0 -13 -5 -13 -11 0 -5 5 -7 10 -4 6 3 10 4
10 1 0 -3 -16 -12 -35 -20 -31 -13 -35 -19 -35 -50 0 -20 5 -36 11 -36 6 0 18
-7 26 -16 14 -13 14 -17 2 -25 -14 -9 -7 -12 21 -10 18 1 56 -26 48 -34 -15
-16 -251 -25 -358 -15 -63 6 -131 12 -150 14 -75 7 -130 19 -130 28 0 5 -4 7
-9 4 -10 -7 -167 44 -197 63 -14 9 -14 11 -3 7 71 -21 151 -28 257 -22 161 10
162 10 162 19 0 4 8 7 18 7 9 0 69 18 132 41 63 22 123 41 132 42 9 1 14 5 12
9 -3 4 6 8 20 8 14 0 28 5 31 10 8 12 16 12 35 0z m231 -17 c-12 -20 -14 -14
-5 12 4 9 9 14 11 11 3 -2 0 -13 -6 -23z m-1056 -91 c-3 -3 -11 0 -18 7 -9 10
-8 11 6 5 10 -3 15 -9 12 -12z m3179 -167 l-119 -125 -193 -106 c-107 -58
-196 -104 -198 -101 -3 3 17 22 43 43 26 22 50 41 53 44 7 8 294 228 365 280
65 48 157 101 163 95 3 -2 -49 -61 -114 -130z m1556 70 c22 -14 40 -28 40 -31
0 -3 -10 2 -22 10 -12 9 -30 16 -39 16 -9 0 -19 7 -23 15 -7 20 -2 19 44 -10z
m-2793 -97 c-3 -8 -6 -5 -6 6 -1 11 2 17 5 13 3 -3 4 -12 1 -19z m2982 -97
l34 -28 -61 -15 c-55 -14 -60 -14 -55 1 4 9 10 21 15 27 6 8 0 10 -19 7 l-28
-5 30 20 c39 27 44 26 84 -7z m363 -74 c7 -13 6 -23 -2 -31 -9 -8 -11 -6 -8 9
1 11 -2 20 -9 20 -6 0 -15 4 -20 9 -5 5 -3 6 5 2 17 -10 15 4 -5 28 l-18 21
23 -20 c13 -11 28 -28 34 -38z m-492 8 c0 -8 -4 -15 -10 -15 -5 0 -7 7 -4 15
4 8 8 15 10 15 2 0 4 -7 4 -15z m-77 -36 c-8 -8 -13 -7 -18 2 -5 8 -4 10 3 5
7 -4 12 -2 12 5 0 7 3 9 7 6 4 -4 2 -12 -4 -18z m1539 -56 c14 -21 30 -55 37
-76 7 -20 17 -35 22 -32 11 7 11 3 3 -19 -3 -9 -10 -16 -15 -16 -4 0 -19 -9
-31 -21 -13 -11 -86 -58 -163 -103 -229 -134 -541 -348 -585 -401 -23 -28 -33
-16 -27 30 5 49 32 89 54 81 7 -3 13 1 13 9 0 29 288 204 478 290 45 21 80 40
77 43 -8 8 -348 -163 -450 -227 -54 -34 -101 -61 -106 -61 -5 0 -9 -4 -9 -10
0 -15 -30 -12 -36 4 -6 17 90 140 143 182 198 158 309 232 458 308 61 30 111
56 111 56 1 0 12 -17 26 -37z m-1602 -3 c-6 -10 -17 -23 -24 -27 -20 -11 -79
-90 -104 -140 -12 -23 -31 -72 -42 -110 -17 -58 -19 -61 -15 -23 8 60 84 216
128 262 19 20 32 40 29 44 -4 4 -1 4 6 0 6 -4 12 -2 12 3 0 6 5 11 10 11 7 0
7 -6 0 -20z m680 -23 c0 -20 0 -20 -15 -1 -20 27 -20 51 0 34 8 -7 15 -22 15
-33z m-95 23 c3 -5 1 -10 -4 -10 -6 0 -11 5 -11 10 0 6 2 10 4 10 3 0 8 -4 11
-10z m69 -50 l7 -25 -15 25 c-9 14 -15 32 -15 40 0 13 1 13 8 0 5 -8 12 -26
15 -40z m-28 -60 c17 -50 27 -90 23 -90 -4 0 -21 41 -37 90 -17 50 -28 90 -24
90 4 0 21 -41 38 -90z m-2736 16 c0 -2 -7 -7 -16 -10 -8 -3 -12 -2 -9 4 6 10
25 14 25 6z m-913 -69 c0 -8 -6 -14 -14 -14 -17 0 -17 14 0 20 6 3 12 6 13 6
0 1 1 -5 1 -12z m826 -5 c-12 -9 -72 -46 -133 -82 -352 -205 -696 -592 -819
-921 -12 -30 -29 -88 -40 -129 -18 -74 -19 -75 -53 -78 -30 -3 -44 6 -119 71
-97 85 -229 227 -229 246 0 3 21 30 46 59 l46 53 55 -93 c30 -51 71 -115 92
-143 20 -27 45 -71 55 -97 19 -51 45 -80 32 -37 -47 162 -49 175 -49 324 -1
210 1 219 37 253 100 94 298 222 501 323 136 68 575 267 590 268 6 0 0 -7 -12
-17z m2880 -102 c3 -11 1 -18 -4 -14 -5 3 -9 12 -9 20 0 20 7 17 13 -6z
m-4383 -195 c7 -9 8 -15 2 -15 -5 0 -12 7 -16 15 -3 8 -4 15 -2 15 2 0 9 -7
16 -15z m3 -47 c-5 -10 -33 10 -33 23 0 5 9 4 19 -3 11 -7 17 -16 14 -20z
m717 22 c-8 -5 -19 -10 -25 -10 -5 0 -3 5 5 10 8 5 20 10 25 10 6 0 3 -5 -5
-10z m-808 -18 c3 -11 0 -19 -8 -19 -16 0 -16 0 -8 21 8 21 11 20 16 -2z m51
-54 c-42 -44 -75 -43 -78 3 -1 10 5 16 14 14 20 -3 43 14 35 26 -3 5 -2 14 2
20 4 7 14 3 29 -12 l23 -24 -25 -27z m697 38 c0 -3 -4 -8 -10 -11 -5 -3 -10
-1 -10 4 0 6 5 11 10 11 6 0 10 -2 10 -4z m-30 -16 c0 -5 -4 -10 -10 -10 -5 0
-10 5 -10 10 0 6 5 10 10 10 6 0 10 -4 10 -10z m-569 -38 c6 -17 6 -29 -1 -36
-7 -7 -10 -5 -10 8 0 9 -4 15 -9 11 -5 -3 -12 -1 -16 5 -3 5 2 10 12 10 15 0
16 2 3 10 -26 17 -29 13 -31 -41 0 -8 -10 -21 -21 -28 -12 -7 -17 -8 -13 -2 3
6 9 24 11 39 11 60 56 74 75 24z m509 -7 c-7 -8 -17 -15 -22 -15 -11 0 14 29
26 30 5 0 3 -7 -4 -15z m-70 -5 c0 -5 -5 -10 -11 -10 -5 0 -7 5 -4 10 3 6 8
10 11 10 2 0 4 -4 4 -10z m-578 -125 c-20 -60 -37 -112 -39 -114 -2 -3 -13 4
-24 16 -14 14 -19 27 -15 41 8 25 106 176 110 171 2 -2 -12 -53 -32 -114z
m143 91 c7 3 15 -6 18 -23 3 -15 9 -36 12 -45 6 -14 2 -18 -15 -18 -16 0 -20
4 -16 16 3 8 2 12 -4 9 -6 -3 -10 -1 -10 5 0 6 -5 8 -11 4 -7 -4 -10 -1 -7 7
3 8 12 13 22 11 20 -4 20 2 2 17 -11 9 -18 8 -30 -5 -10 -9 -20 -13 -24 -10
-3 4 0 11 7 16 8 4 11 15 8 24 -6 15 -5 15 14 2 12 -8 27 -12 34 -10z m439 5
c3 -5 -2 -15 -12 -22 -15 -12 -16 -12 -5 2 7 9 10 19 6 22 -3 4 -4 7 0 7 3 0
8 -4 11 -9z m3876 -79 c0 -14 -36 -43 -43 -36 -4 4 -12 3 -20 -2 -7 -5 1 3 18
18 31 28 45 34 45 20z m-4270 -42 c6 -11 8 -20 6 -20 -3 0 -10 9 -16 20 -6 11
-8 20 -6 20 3 0 10 -9 16 -20z m-297 -32 c-21 -43 -27 -49 -18 -18 7 23 23 50
30 50 2 0 -4 -15 -12 -32z m5450 21 c7 0 1 -5 -13 -11 -59 -26 -91 -35 -95
-27 -7 11 66 49 83 44 8 -3 19 -5 25 -6z m-5103 -107 l28 -60 -54 -58 -55 -59
23 45 c22 45 24 51 27 71 0 5 5 8 10 5 15 -10 7 28 -9 42 -13 10 -12 11 5 5
18 -6 19 -5 6 11 -8 9 -15 28 -16 41 -1 31 1 28 35 -43z m4026 53 c-11 -8 -27
-15 -35 -15 -9 1 -2 7 14 15 39 18 44 18 21 0z m-406 -40 c52 -14 53 -15 11
-10 -24 3 -51 10 -60 15 -21 12 -16 12 49 -5z m-3906 -68 c-9 -55 -17 -62 -49
-41 l-27 17 26 14 c14 7 29 25 32 38 10 40 25 17 18 -28z m-108 -75 c-12 -11
-18 7 -10 30 l8 23 4 -23 c2 -13 1 -26 -2 -30z m4697 -97 c4 -8 2 -17 -3 -20
-6 -4 -10 3 -10 14 0 25 6 27 13 6z m-2968 -112 c-22 -15 -66 -49 -98 -77 -32
-27 -84 -62 -115 -78 -48 -23 -59 -25 -71 -14 -11 12 -4 20 45 52 68 44 254
143 269 144 5 0 -8 -12 -30 -27z m45 -166 c0 -2 -24 -20 -53 -40 -29 -20 -68
-52 -87 -72 -39 -40 -43 -41 -64 -19 -15 14 -12 19 30 54 50 42 174 96 174 77z
m-220 -73 c0 -2 -7 -4 -15 -4 -8 0 -15 4 -15 10 0 5 7 7 15 4 8 -4 15 -8 15
-10z m-194 -29 c-29 -25 -36 -29 -36 -20 0 8 44 45 54 45 6 0 -2 -11 -18 -25z
m148 -1 c7 -19 2 -18 -19 6 -16 17 -16 20 -3 15 9 -4 19 -13 22 -21z m-37 -30
c-1 -1 -29 -4 -62 -7 l-60 -5 45 12 c28 7 40 15 32 20 -6 4 -16 5 -20 2 -5 -3
-9 1 -9 9 0 10 10 8 38 -8 21 -12 37 -22 36 -23z m-87 16 c0 -5 -2 -10 -4 -10
-3 0 -8 5 -11 10 -3 6 -1 10 4 10 6 0 11 -4 11 -10z m623 -249 c-4 -3 -8 -19
-8 -35 0 -26 -3 -29 -36 -31 -28 -1 -36 2 -32 13 4 10 8 10 13 2 5 -8 11 -6
20 5 11 13 15 13 22 3 5 -8 6 -3 2 14 -3 15 -2 33 2 40 5 7 9 16 10 21 4 20 7
20 11 -2 3 -13 1 -26 -4 -30z m-13 -92 c0 -5 -6 -9 -12 -9 -10 0 -10 -2 -1 -8
15 -9 6 -52 -11 -52 -7 0 -7 -3 1 -8 9 -6 10 -17 2 -45 -5 -20 -11 -37 -12
-37 -6 0 1 92 7 97 3 4 6 13 6 22 -1 14 -2 14 -14 -1 -7 -10 -17 -18 -21 -18
-5 0 0 9 10 20 9 10 15 26 12 34 -3 8 -3 16 0 19 7 8 33 -3 33 -14z m-38 -231
c-3 -29 -11 -58 -18 -66 -12 -11 -14 -11 -14 2 0 8 4 25 9 38 5 13 12 35 15
51 10 43 13 31 8 -25z m6328 28 c-6 -8 -19 -12 -27 -9 -11 4 -14 2 -9 -5 5 -8
1 -10 -10 -5 -11 4 -15 2 -11 -4 4 -6 -1 -14 -10 -17 -10 -4 -14 -4 -10 0 4 4
3 12 -3 18 -6 8 -3 12 8 14 41 4 62 9 68 15 13 13 16 7 4 -7z m-96 -35 c-8 -8
-43 -8 -38 0 2 4 13 7 24 6 10 -1 17 -3 14 -6z m-97 -17 c-3 -3 -12 -4 -19 -1
-8 3 -5 6 6 6 11 1 17 -2 13 -5z m28 -14 c3 -5 1 -10 -4 -10 -6 0 -11 5 -11
10 0 6 2 10 4 10 3 0 8 -4 11 -10z m-59 -14 c-20 -9 -25 -15 -15 -19 8 -3 9
-6 2 -6 -23 -2 -24 19 -1 28 35 15 47 11 14 -3z m79 -5 c-3 -6 -21 -10 -38
-10 -27 2 -28 2 -7 6 14 3 29 9 34 14 12 11 20 4 11 -10z m-122 -47 c-23 -18
-33 -17 -33 1 0 9 6 12 17 8 13 -5 15 -2 10 12 -6 15 -5 16 8 5 14 -11 13 -14
-2 -26z m47 2 c0 -20 -26 -40 -35 -26 -4 6 -4 14 -1 17 3 4 6 1 6 -6 0 -7 5
-9 11 -6 6 4 8 13 5 21 -3 8 -1 14 4 14 6 0 10 -6 10 -14z m17 -8 c-3 -8 -6
-5 -6 6 -1 11 2 17 5 13 3 -3 4 -12 1 -19z m-6164 -58 c-3 -12 -8 -19 -11 -16
-5 6 5 36 12 36 2 0 2 -9 -1 -20z m28 -33 c-5 -13 -7 -36 -5 -53 4 -28 4 -28
-5 -4 -10 30 -3 92 10 85 4 -3 4 -16 0 -28z m6379 -789 c-48 -97 -45 -94 -70
-78 -13 8 -12 10 3 10 9 0 16 3 15 8 -3 7 51 82 59 82 2 0 -1 -10 -7 -22z
m-60 -105 c0 -10 -40 -70 -40 -61 0 3 -3 14 -7 24 -4 11 -3 15 5 10 6 -3 13 3
17 14 6 19 25 29 25 13z m-60 -39 c0 -8 -4 -13 -9 -10 -5 3 -16 -5 -25 -19 -9
-14 -21 -25 -27 -25 -5 0 2 16 17 35 28 38 44 44 44 19z m-4 -72 c-19 -20 -27
-13 -19 17 4 17 8 19 14 9 7 -10 9 -8 10 7 1 18 2 19 6 1 3 -10 -2 -25 -11
-34z m-92 -7 c-7 -16 -24 -21 -24 -6 0 8 7 13 27 20 1 1 0 -6 -3 -14z m36 0
c0 -8 -4 -15 -10 -15 -5 0 -10 7 -10 15 0 8 5 15 10 15 6 0 10 -7 10 -15z
m-47 -46 c-17 -17 -24 -19 -39 -10 -18 11 -18 12 2 6 13 -3 26 1 34 10 7 8 15
15 18 15 4 0 -3 -10 -15 -21z m-69 -34 c-4 -8 -1 -15 5 -15 6 0 11 -8 11 -17
0 -15 -2 -15 -9 -4 -8 12 -12 12 -25 2 -11 -9 -16 -10 -16 -2 0 6 5 11 10 11
6 0 10 9 10 20 0 11 4 20 10 20 5 0 7 -7 4 -15z m97 -8 c-10 -9 -11 -8 -5 6 3
10 9 15 12 12 3 -3 0 -11 -7 -18z m-44 7 c-3 -3 -12 -4 -19 -1 -8 3 -5 6 6 6
11 1 17 -2 13 -5z m13 -34 c-11 -20 -30 -28 -30 -12 0 11 22 32 32 32 5 0 4
-9 -2 -20z m-141 -28 c-6 -9 -23 -23 -37 -30 -23 -10 -22 -7 8 18 41 35 44 36
29 12z m107 -17 c-8 -8 -18 -15 -22 -15 -3 0 -1 7 6 15 7 8 17 15 22 15 5 0 3
-7 -6 -15z m-46 -40 c-7 -9 -15 -13 -17 -11 -7 7 7 26 19 26 6 0 6 -6 -2 -15z
m-74 -21 c18 -14 18 -14 -6 -3 -31 14 -36 19 -24 19 6 0 19 -7 30 -16z m-149
-79 c-7 -13 -14 -20 -15 -14 -2 5 2 16 8 24 18 21 20 18 7 -10z m-25 -57 c-7
-7 -12 -8 -12 -2 0 14 12 26 19 19 2 -3 -1 -11 -7 -17z m24 -17 c-3 -5 1 -12
10 -15 13 -5 14 -9 4 -21 -7 -8 -17 -15 -23 -15 -6 0 -2 6 8 14 18 13 18 14
-3 20 -21 7 -22 26 -1 26 6 0 8 -4 5 -9z m54 -5 c0 -3 -4 -8 -10 -11 -5 -3
-10 -1 -10 4 0 6 5 11 10 11 6 0 10 -2 10 -4z m-100 -40 c0 -2 -7 -9 -15 -16
-13 -11 -14 -10 -9 4 5 14 24 23 24 12z m30 -20 c0 -3 -4 -8 -10 -11 -5 -3
-10 -1 -10 4 0 6 5 11 10 11 6 0 10 -2 10 -4z m-5083 -382 c-3 -3 -12 -4 -19
-1 -8 3 -5 6 6 6 11 1 17 -2 13 -5z m3656 -115 c-29 -28 -53 -54 -53 -57 0 -4
-10 -18 -23 -32 -13 -14 -21 -32 -19 -39 3 -10 0 -12 -12 -8 -10 4 -16 1 -16
-8 0 -20 -83 -101 -154 -150 -32 -22 -78 -59 -102 -82 -24 -24 -48 -43 -53
-43 -5 0 -11 -6 -14 -14 -4 -11 0 -12 22 -3 17 6 41 7 65 1 l37 -9 -54 -33
c-47 -28 -60 -32 -96 -26 -23 4 -40 10 -39 15 2 4 87 94 190 201 163 168 348
338 367 338 3 0 -18 -23 -46 -51z m-3771 -121 c-7 -7 -12 -8 -12 -2 0 14 12
26 19 19 2 -3 -1 -11 -7 -17z m-4022 -107 l35 -8 -40 -17 c-139 -62 -194 -76
-296 -76 l-101 0 7 29 c6 29 -7 68 -29 84 -13 10 374 -1 424 -12z m7495 -127
c-11 -8 -19 -20 -17 -25 1 -6 -2 -8 -8 -4 -5 3 -13 0 -16 -8 -2 -7 -11 -14
-19 -14 -20 0 0 24 40 49 36 22 47 23 20 2z m55 -29 c-7 -8 -20 -15 -28 -15
-13 0 -12 3 4 15 25 19 40 19 24 0z m-3535 -60 c-1 -14 2 -25 6 -25 5 0 9 -5
9 -12 0 -9 -3 -9 -12 0 -14 14 -32 16 -23 2 3 -6 -1 -7 -9 -4 -9 3 -16 10 -16
16 0 5 5 6 10 3 6 -3 10 0 10 7 0 12 18 38 26 38 1 0 1 -11 -1 -25z m3177 16
l107 -6 -27 -32 -27 -32 -95 14 c-52 8 -150 15 -217 15 -131 0 -215 13 -234
36 -10 12 16 14 187 13 110 -1 247 -4 306 -8z m-525 -23 c64 -28 65 -29 163
-35 94 -6 129 -18 111 -36 -9 -9 -14 -9 -20 2 -6 9 -10 10 -16 2 -9 -16 -47
-10 -62 9 -18 21 -16 -1 2 -27 13 -19 13 -22 -1 -27 -12 -5 -15 -14 -10 -36 6
-35 -9 -41 -18 -7 -9 35 -7 47 9 47 8 0 15 4 15 10 0 14 -40 32 -61 27 -10 -3
-23 1 -30 9 -6 7 -21 12 -32 11 -13 -1 -22 4 -22 13 -1 8 -6 14 -13 13 -7 -2
-12 1 -12 7 0 6 -9 6 -22 1 -13 -5 -22 -14 -20 -20 1 -6 -3 -11 -9 -11 -5 0
-7 -6 -3 -12 4 -7 4 -10 -1 -6 -4 4 -14 0 -22 -8 -9 -8 -28 -18 -44 -21 -16
-3 -29 -9 -29 -14 0 -5 -10 -9 -22 -9 -13 0 -32 -7 -42 -15 -23 -17 -46 -20
-46 -5 0 6 7 10 15 10 10 0 15 11 15 35 0 28 -4 35 -20 35 -34 0 -22 20 13 22
l32 1 -35 6 c-34 5 -34 5 15 11 l50 7 -65 1 c-36 1 -72 -3 -80 -8 -12 -8 -12
-10 -1 -10 8 0 11 -3 8 -6 -4 -4 -13 -2 -20 4 -8 7 -18 8 -22 4 -5 -4 -5 -1
-1 6 4 6 2 12 -4 12 -6 0 -9 4 -6 9 3 5 72 9 152 9 80 0 148 3 152 6 7 8 4 9
59 -16z m-420 -4 c-3 -3 -12 -4 -19 -1 -8 3 -5 6 6 6 11 1 17 -2 13 -5z m436
-36 c-6 -11 -43 -10 -43 1 0 5 11 8 24 7 13 0 22 -4 19 -8z m-359 -14 c3 -8 2
-12 -4 -9 -6 3 -10 10 -10 16 0 14 7 11 14 -7z m660 0 c4 -11 1 -14 -11 -12
-9 2 -18 9 -21 16 -6 18 25 15 32 -4z m201 -16 c7 -7 3 -8 -11 -4 -11 4 -50 0
-85 -7 -54 -11 -67 -11 -77 0 -10 11 -9 13 10 13 18 0 20 2 8 10 -9 5 15 7 65
3 44 -3 85 -10 90 -15z m-3268 -3 c0 -8 -4 -12 -9 -9 -5 3 -6 10 -3 15 9 13
12 11 12 -6z m582 -26 c-34 -110 -250 -499 -371 -669 -73 -102 -197 -257 -228
-285 l-21 -19 7 29 c33 139 105 334 182 500 55 117 65 130 123 179 35 29 120
109 189 178 69 69 126 125 127 124 2 -1 -2 -18 -8 -37z m2431 -9 c0 -5 -7 -7
-15 -4 -8 4 -12 10 -9 15 6 11 24 2 24 -11z m-510 0 c0 -5 -11 -10 -25 -10
-14 0 -25 5 -25 10 0 6 11 10 25 10 14 0 25 -4 25 -10z m-2613 -45 c0 -9 -11
-18 -24 -21 -12 -4 -21 -9 -18 -13 2 -4 -2 -8 -10 -8 -11 0 -12 4 -4 14 6 7
17 13 24 13 7 0 15 7 19 15 7 19 13 19 13 0z m2983 -25 c-6 -11 -12 -20 -14
-20 -2 0 -2 9 1 20 3 11 9 20 15 20 5 0 4 -9 -2 -20z m-7717 -45 c-15 -19 -32
-35 -36 -35 -11 0 45 68 56 69 4 1 -5 -15 -20 -34z m7854 10 c0 -8 -7 -15 -15
-15 -12 0 -12 3 -2 15 7 8 13 15 15 15 1 0 2 -7 2 -15z m-175 -31 c-12 -8 -22
-22 -22 -30 0 -8 -4 -12 -10 -9 -14 9 18 55 38 55 13 0 11 -4 -6 -16z m-3048
-6 c-2 -3 -13 -6 -24 -5 -24 2 -18 13 9 13 11 0 18 -4 15 -8z m-2153 -41 c14
-17 28 -40 32 -50 4 -9 24 -43 45 -75 76 -112 292 -548 292 -588 0 -8 -5 -23
-12 -34 -15 -23 -4 -37 16 -21 17 15 20 10 61 -97 28 -76 27 -89 -12 -95 -43
-6 -38 -19 6 -16 l44 4 19 -55 c60 -173 127 -462 168 -723 20 -124 21 -151 11
-261 -6 -67 -17 -139 -24 -161 -12 -34 -20 -41 -66 -56 -73 -25 -272 -24 -405
2 -239 45 -513 151 -683 262 -82 54 -89 72 -75 191 18 145 88 487 132 650 89
324 357 1091 398 1139 20 23 23 22 53 -16z m4380 6 c-19 -35 -71 -76 -125 -98
-85 -34 -62 -8 77 88 46 31 62 34 48 10z m-1762 -19 c3 -4 -1 -5 -10 -1 -9 3
-21 1 -26 -4 -6 -6 -10 -4 -10 5 0 14 33 14 46 0z m-559 3 c0 -2 -15 -16 -32
-33 -27 -24 -29 -25 -13 -4 24 30 45 47 45 37z m2547 -38 c37 -16 63 -34 63
-43 0 -23 -123 -185 -140 -185 -8 0 -46 20 -84 44 -38 25 -73 45 -78 45 -23 0
-1 38 63 105 80 84 70 82 176 34z m-2544 6 c-3 -9 -8 -14 -10 -11 -3 3 -2 9 2
15 9 16 15 13 8 -4z m546 12 c-2 -1 -13 -9 -24 -17 -19 -14 -19 -14 -6 3 7 9
18 17 24 17 6 0 8 -1 6 -3z m-94 -58 c11 -16 1 -19 -13 -3 -7 8 -8 14 -3 14 5
0 13 -5 16 -11z m2638 -8 c-4 -3 -11 -10 -15 -15 -4 -4 -6 1 -5 12 1 12 6 18
15 15 7 -3 10 -9 5 -12z m-3148 -13 c5 4 5 1 1 -6 -4 -7 -11 -10 -16 -7 -4 3
-11 -2 -14 -11 -3 -8 -11 -12 -17 -8 -8 5 -6 10 5 16 9 5 13 14 9 21 -5 9 -2
8 9 0 8 -7 19 -9 23 -5z m2173 -143 c-68 -85 -150 -192 -183 -237 -54 -74 -65
-83 -107 -94 -71 -18 -278 -48 -285 -41 -14 15 189 211 322 311 101 76 327
207 373 215 1 1 -53 -69 -120 -154z m-2210 46 c10 -13 9 -18 -9 -32 -21 -16
-21 -17 -3 -43 14 -22 15 -32 6 -46 -9 -15 -9 -22 2 -33 8 -7 16 -22 19 -33 3
-14 5 -12 6 8 0 14 -5 28 -11 31 -7 2 -10 8 -6 12 4 4 15 -6 25 -22 14 -26 22
-30 50 -28 23 3 33 -1 33 -11 0 -16 -16 -19 -24 -5 -9 13 -45 1 -40 -13 2 -6
-8 -24 -24 -39 l-29 -28 -12 72 c-6 39 -9 74 -6 77 2 3 1 10 -4 16 -14 19 -22
87 -8 79 9 -5 8 -2 0 9 -7 8 -9 18 -5 22 4 4 1 6 -7 4 -7 -1 -16 3 -18 10 -3
7 1 11 9 10 7 -2 12 3 10 11 -3 12 0 12 15 1 10 -8 24 -21 31 -29z m546 -6
c-4 -8 -11 -15 -16 -15 -6 0 -5 6 2 15 7 8 14 15 16 15 2 0 1 -7 -2 -15z m-26
-40 c-3 -3 -9 2 -12 12 -6 14 -5 15 5 6 7 -7 10 -15 7 -18z m-219 -15 c4 0 12
5 19 12 7 7 12 8 12 2 0 -5 -9 -15 -19 -21 -16 -10 -20 -9 -25 3 -3 9 -5 21
-5 27 1 7 3 4 6 -5 2 -10 8 -18 12 -18z m196 -1 c-5 -16 -4 -19 5 -14 9 6 11
4 5 -4 -10 -18 -27 2 -19 22 9 25 17 21 9 -4z m-40 -18 c-3 -6 -11 -11 -16
-11 -5 0 -4 6 3 14 14 16 24 13 13 -3z m2070 -26 c0 -22 -31 -33 -48 -16 -7 7
-6 15 3 26 17 21 45 15 45 -10z m-2289 0 c13 4 11 2 -5 -8 -13 -8 -33 -12 -44
-9 -19 5 -19 6 -2 19 13 8 21 9 25 3 4 -6 15 -8 26 -5z m-196 -15 c0 -5 -5
-10 -11 -10 -5 0 -7 5 -4 10 3 6 8 10 11 10 2 0 4 -4 4 -10z m445 -8 c-3 -3
-11 0 -18 7 -9 10 -8 11 6 5 10 -3 15 -9 12 -12z m-161 -57 c-26 -109 -63
-331 -70 -421 -4 -60 -12 -95 -23 -108 -9 -10 -56 -50 -106 -89 l-90 -70 -7
84 c-4 46 -12 156 -18 244 -6 88 -14 172 -17 186 -4 23 1 29 59 59 74 39 225
131 259 159 13 11 25 19 26 18 1 -1 -5 -29 -13 -62z m-144 45 c13 -8 13 -10
-1 -10 -9 0 -22 -7 -29 -15 -14 -17 -30 -20 -30 -5 0 6 7 10 15 10 21 0 19 18
-2 23 -12 3 -10 5 7 6 14 0 32 -4 40 -9z m187 -19 c0 -11 -5 -18 -9 -15 -4 3
-5 11 -1 19 7 21 12 19 10 -4z m113 9 c0 -5 -2 -10 -4 -10 -3 0 -8 5 -11 10
-3 6 -1 10 4 10 6 0 11 -4 11 -10z m-18 -36 c-2 -10 -11 -35 -20 -54 -9 -19
-21 -51 -27 -70 -7 -22 -17 -34 -26 -32 -11 3 -11 1 -2 -9 9 -9 9 -19 -1 -44
-8 -18 -17 -51 -21 -73 -4 -23 -11 -44 -16 -48 -5 -3 -7 -10 -4 -15 4 -5 2 -9
-4 -9 -5 0 -12 6 -14 13 -3 7 -6 4 -6 -6 -1 -10 -5 -16 -10 -13 -5 4 -14 -6
-19 -21 -6 -16 -11 -21 -11 -13 -1 8 6 28 14 43 9 18 13 46 10 77 -2 28 1 52
6 56 6 3 8 16 5 29 -4 16 -1 25 11 29 13 6 14 9 5 15 -18 11 -5 59 18 66 13 4
17 12 13 22 -4 10 -2 14 4 10 6 -4 18 -4 27 -1 14 5 14 9 4 22 -11 13 -10 14
8 8 21 -6 40 15 35 37 -1 5 4 7 11 4 7 -2 11 -13 10 -23z m-77 -43 c-3 -3 -10
1 -15 9 -7 11 -10 8 -15 -13 -4 -15 -11 -27 -16 -27 -5 0 -2 14 6 31 13 25 19
28 31 18 8 -6 12 -14 9 -18z m3444 -120 c-92 -72 -446 -289 -699 -429 -331
-182 -451 -235 -905 -402 -77 -28 -254 -96 -394 -152 -171 -67 -256 -97 -263
-90 -16 16 -3 27 49 46 26 10 57 22 68 27 11 5 58 24 105 43 134 53 431 176
475 196 22 10 84 39 139 64 54 25 108 48 121 50 12 2 87 37 166 78 79 41 169
84 199 97 30 13 95 45 144 72 49 27 95 49 103 49 18 0 419 204 483 246 56 36
212 122 224 123 5 1 -2 -7 -15 -18z m-1956 -133 c-4 -7 -38 -58 -75 -113 -61
-92 -308 -493 -308 -501 0 -3 158 90 290 171 47 29 159 94 250 145 91 51 185
105 210 119 70 40 128 65 110 47 -44 -42 -487 -359 -610 -437 -125 -78 -315
-188 -318 -184 -2 2 4 18 13 37 l16 33 -25 -29 c-30 -36 -215 -389 -262 -501
-38 -90 -40 -85 -27 73 l6 82 38 6 c22 4 39 10 39 15 0 4 -16 5 -35 2 -20 -3
-35 -1 -35 4 0 21 50 250 66 303 50 166 219 529 310 665 l33 50 123 10 c68 6
140 11 161 13 30 2 37 0 30 -10z m-5167 -180 c4 -6 3 -13 -3 -15 -7 -3 -70
-40 -142 -83 -72 -44 -131 -76 -131 -71 0 15 183 154 220 168 44 15 47 16 56
1z m4226 -485 c-57 -68 -140 -204 -187 -306 l-40 -86 -38 -1 c-71 0 -240 40
-309 73 -38 19 -68 32 -68 30 0 -1 17 -14 38 -27 52 -34 143 -63 259 -82 54
-8 99 -17 101 -19 2 -2 -8 -39 -22 -82 -14 -43 -26 -83 -26 -89 0 -24 423
-213 671 -300 69 -24 141 -50 160 -59 l34 -15 -40 6 c-196 29 -541 123 -731
199 -64 26 -119 44 -122 40 -4 -4 -7 -64 -7 -133 1 -122 18 -216 71 -384 3
-10 2 -18 -3 -18 -5 0 -26 44 -47 98 -41 103 -207 482 -271 617 -21 44 -67
140 -102 214 -35 74 -62 135 -61 136 6 3 166 63 208 78 25 9 101 27 170 42
117 25 296 78 365 109 17 7 32 12 34 10 2 -1 -15 -24 -37 -51z m253 -120 c-5
-15 -25 -107 -25 -119 0 -1 -17 -8 -37 -15 -21 -7 -72 -29 -113 -50 -41 -22
-78 -39 -83 -39 -19 0 235 237 257 239 4 1 5 -7 1 -16z m374 -166 c-3 -3 -162
-53 -226 -72 -15 -4 -23 -2 -23 6 0 7 3 9 7 6 3 -4 12 -2 20 4 7 6 13 8 13 4
0 -4 6 -2 13 4 8 6 22 12 33 14 10 2 35 11 54 19 63 28 95 36 104 27 5 -5 8
-10 5 -12z m-276 -88 c-23 -8 -25 -6 -17 15 5 13 9 14 21 4 13 -10 13 -13 -4
-19z m-2443 -75 c0 -8 -5 -12 -10 -9 -6 4 -8 11 -5 16 9 14 15 11 15 -7z m6
-51 c4 -13 3 -27 0 -31 -4 -3 -9 4 -13 16 -3 12 -9 22 -14 22 -5 0 -9 7 -9 15
0 23 29 6 36 -22z m4179 -206 c21 -16 13 -37 -15 -37 -22 0 -34 15 -26 35 7
19 17 19 41 2z m-6062 -877 c4 0 5 6 3 13 -1 6 -1 9 1 4 3 -4 10 -4 15 -1 6 4
8 2 4 -4 -3 -5 -2 -12 2 -14 9 -3 94 -143 105 -171 6 -15 4 -16 -16 -5 -12 7
-27 13 -33 14 -6 1 -27 9 -45 18 -19 8 -52 22 -74 29 -31 11 -49 28 -82 76
-38 56 -43 69 -43 120 0 32 3 60 6 64 4 3 39 -27 79 -68 39 -41 75 -75 78 -75z
m4724 -77 c-3 -10 -5 -4 -5 12 0 17 2 24 5 18 2 -7 2 -21 0 -30z m-80 -115
c-3 -8 -6 -5 -6 6 -1 11 2 17 5 13 3 -3 4 -12 1 -19z m-2659 -530 l-43 -83
-90 -45 c-124 -61 -242 -100 -308 -100 -58 0 -141 23 -231 64 -31 14 -61 26
-66 26 -5 0 -11 3 -13 8 -3 4 36 6 86 4 50 -2 127 1 171 7 76 10 295 68 306
80 3 3 33 19 66 35 34 16 81 41 105 57 24 15 48 28 52 28 4 1 -11 -36 -35 -81z
m554 -290 c-15 -15 -16 -32 -2 -23 6 4 10 -7 10 -27 0 -18 7 -55 15 -82 8 -27
15 -54 15 -59 0 -11 -134 -2 -156 11 -11 6 -3 24 32 77 47 70 83 115 93 115 3
0 0 -5 -7 -12z m-232 -367 c-12 -23 -29 -35 -37 -27 -7 7 26 46 39 46 5 0 4
-9 -2 -19z m218 7 c-6 -18 -28 -21 -28 -4 0 9 7 16 16 16 9 0 14 -5 12 -12z"/>
<path d="M4941 10274 c-12 -15 -19 -30 -15 -33 3 -3 12 3 20 13 8 11 14 14 14
8 0 -7 9 -12 21 -12 15 0 20 5 17 22 -4 33 -32 33 -57 2z"/>
<path d="M4943 10220 c-1 -12 4 -20 14 -20 9 0 13 3 10 7 -4 3 -2 12 4 20 9
10 7 13 -8 13 -12 0 -19 -8 -20 -20z"/>
<path d="M4892 10210 c-11 -18 -10 -19 13 -8 26 12 34 28 12 28 -7 0 -18 -9
-25 -20z"/>
<path d="M4800 10071 c0 -6 4 -13 10 -16 6 -3 7 1 4 9 -7 18 -14 21 -14 7z"/>
<path d="M4720 9951 c0 -11 6 -23 13 -27 6 -4 9 -4 5 1 -4 4 -3 16 3 26 7 15
6 19 -6 19 -8 0 -15 -9 -15 -19z"/>
<path d="M6661 10031 c13 -11 26 -17 28 -15 5 5 -30 33 -43 34 -4 0 2 -9 15
-19z"/>
<path d="M2513 10120 c-11 -16 -10 -18 1 -14 15 6 30 34 18 34 -4 0 -13 -9
-19 -20z"/>
<path d="M7880 9385 c-14 -8 -20 -14 -15 -14 6 0 21 6 35 14 14 8 21 14 15 14
-5 0 -21 -6 -35 -14z"/>
<path d="M2623 9068 c3 -10 -2 -27 -13 -40 -14 -16 -19 -19 -20 -8 0 13 -2 13
-9 0 -18 -27 1 -31 28 -6 15 15 30 23 34 19 14 -13 6 13 -10 32 -12 15 -14 16
-10 3z"/>
<path d="M7568 4913 c7 -3 16 -2 19 1 4 3 -2 6 -13 5 -11 0 -14 -3 -6 -6z"/>
<path d="M7600 4910 c0 -5 -7 -10 -15 -10 -21 0 -65 -22 -65 -32 0 -5 9 -4 19
2 11 5 28 10 38 10 10 0 24 9 31 20 7 12 8 20 2 20 -5 0 -10 -4 -10 -10z"/>
<path d="M2861 3823 c-12 -14 -19 -28 -16 -31 6 -6 55 38 55 50 0 16 -19 7
-39 -19z"/>
<path d="M2769 3713 c-13 -16 -12 -17 4 -4 9 7 17 15 17 17 0 8 -8 3 -21 -13z"/>
<path d="M2685 3620 c-27 -27 -46 -52 -43 -55 3 -3 29 2 58 12 29 9 48 19 42
21 -6 2 -21 -2 -32 -8 -35 -19 -35 -3 -1 35 28 32 36 45 28 45 -1 0 -25 -22
-52 -50z"/>
<path d="M2838 3623 c7 -3 16 -2 19 1 4 3 -2 6 -13 5 -11 0 -14 -3 -6 -6z"/>
<path d="M2768 3603 c7 -3 16 -2 19 1 4 3 -2 6 -13 5 -11 0 -14 -3 -6 -6z"/>
<path d="M4520 4200 c0 -5 5 -10 10 -10 6 0 10 5 10 10 0 6 -4 10 -10 10 -5 0
-10 -4 -10 -10z"/>
<path d="M4883 4138 c-2 -18 0 -20 7 -8 12 18 13 30 2 30 -4 0 -9 -10 -9 -22z"/>
<path d="M4906 4143 c-4 -9 -3 -20 1 -24 4 -4 9 3 9 17 2 28 -1 31 -10 7z"/>
<path d="M4875 4100 c-3 -5 -2 -10 4 -10 5 0 13 5 16 10 3 6 2 10 -4 10 -5 0
-13 -4 -16 -10z"/>
<path d="M4880 4075 c0 -5 5 -17 10 -25 5 -8 10 -10 10 -5 0 6 -5 17 -10 25
-5 8 -10 11 -10 5z"/>
<path d="M4860 4027 c0 -9 4 -18 9 -21 5 -4 8 1 7 9 -3 21 -16 31 -16 12z"/>
<path d="M4841 3934 c0 -11 3 -14 6 -6 3 7 2 16 -1 19 -3 4 -6 -2 -5 -13z"/>
<path d="M3553 11935 c-6 -14 -7 -23 -2 -19 13 8 31 44 22 44 -4 0 -13 -11
-20 -25z"/>
<path d="M9600 11939 c-156 -15 -187 -27 -70 -28 184 -2 438 -37 1070 -147 71
-12 182 -36 275 -60 30 -7 -67 43 -190 99 -120 54 -237 84 -460 117 -164 25
-465 34 -625 19z"/>
<path d="M3525 11889 c-4 -6 -5 -12 -2 -15 2 -3 7 2 10 11 7 17 1 20 -8 4z"/>
<path d="M12904 11184 c14 -16 50 -65 78 -109 29 -44 53 -82 55 -84 2 -2 5 -2
8 1 12 12 -129 205 -159 217 -5 2 3 -9 18 -25z"/>
<path d="M8 10953 c7 -3 16 -2 19 1 4 3 -2 6 -13 5 -11 0 -14 -3 -6 -6z"/>
<path d="M118 10923 c7 -3 16 -2 19 1 4 3 -2 6 -13 5 -11 0 -14 -3 -6 -6z"/>
<path d="M13257 10574 c-4 -4 -7 -14 -7 -23 0 -11 3 -12 11 -4 6 6 10 16 7 23
-2 6 -7 8 -11 4z"/>
<path d="M5938 10503 c7 -3 16 -2 19 1 4 3 -2 6 -13 5 -11 0 -14 -3 -6 -6z"/>
<path d="M6490 10479 c320 -27 483 -36 1110 -64 130 -6 454 -31 575 -44 l70
-8 -65 -2 c-36 -2 -59 -5 -52 -8 8 -3 57 -2 110 3 91 7 94 8 47 15 -27 3 -102
13 -165 22 -104 15 -531 50 -755 63 -225 12 -802 34 -882 33 l-88 -2 95 -8z"/>
<path d="M13560 10461 c19 -17 34 -36 33 -41 -2 -5 3 -7 11 -4 7 3 63 -44 132
-110 65 -63 119 -114 121 -113 1 2 -27 37 -63 80 -59 69 -159 154 -239 202
-28 17 -28 16 5 -14z"/>
<path d="M13990 10363 c0 -4 22 -38 48 -77 115 -167 219 -361 267 -496 45
-128 56 -162 60 -179 2 -9 7 -27 11 -41 3 -14 -21 16 -55 67 -56 84 -81 115
-81 97 0 -3 20 -34 43 -68 107 -150 121 -184 196 -476 118 -458 172 -716 221
-1045 20 -131 29 -173 29 -135 2 141 -106 698 -213 1100 -18 69 -42 163 -52
210 -9 47 -24 103 -32 125 -25 70 -41 125 -37 125 19 0 176 -393 252 -630 33
-102 65 -201 71 -220 l12 -35 -5 45 c-10 105 -181 567 -306 829 -39 80 -82
180 -96 221 -48 142 -129 297 -250 478 -70 106 -83 122 -83 105z"/>
<path d="M8058 10353 c6 -2 18 -2 25 0 6 3 1 5 -13 5 -14 0 -19 -2 -12 -5z"/>
<path d="M8378 10353 c7 -3 16 -2 19 1 4 3 -2 6 -13 5 -11 0 -14 -3 -6 -6z"/>
<path d="M7928 10343 c7 -3 16 -2 19 1 4 3 -2 6 -13 5 -11 0 -14 -3 -6 -6z"/>
<path d="M13180 10320 c0 -18 4 -29 10 -25 6 3 10 15 10 25 0 10 -4 22 -10 25
-6 4 -10 -7 -10 -25z"/>
<path d="M13540 10260 c-72 -7 -140 -27 -140 -41 0 -5 6 -9 14 -9 20 0 108
-88 101 -100 -3 -6 0 -10 7 -10 17 0 41 -38 32 -52 -4 -6 -3 -8 3 -5 11 7 22
-13 58 -105 l23 -56 -87 56 c-47 32 -110 65 -139 76 -49 17 -55 23 -79 75 -14
31 -25 64 -25 74 0 9 -3 15 -9 12 -5 -4 -9 -16 -9 -28 -1 -22 -1 -22 -15 -3
-23 30 -18 -2 6 -40 11 -19 27 -34 35 -34 9 0 12 -4 9 -10 -3 -5 -1 -18 4 -27
6 -10 11 -14 11 -10 0 14 128 -60 210 -122 45 -34 85 -61 89 -61 15 0 40 -64
62 -156 25 -106 69 -357 63 -363 -2 -2 -11 13 -20 34 -84 201 -204 385 -339
521 -117 117 -146 133 -208 113 l-42 -13 45 -6 c105 -13 249 -162 392 -403 62
-105 86 -152 150 -307 l39 -95 0 -203 c0 -112 -3 -208 -7 -213 -3 -6 -8 -34
-10 -62 -9 -119 -26 -253 -34 -262 -4 -5 -6 -24 -4 -42 2 -18 -1 -35 -6 -38
-5 -3 -7 -12 -4 -19 6 -14 -12 -126 -52 -331 -32 -162 -44 -209 -52 -201 -3 4
-25 -62 -48 -146 -23 -84 -65 -213 -93 -287 -55 -144 -172 -414 -178 -408 -3
3 25 99 63 216 7 24 11 47 8 52 -3 5 -1 9 5 9 5 0 9 8 9 18 -1 9 1 35 5 57 4
26 -1 18 -14 -25 -11 -36 -33 -96 -49 -135 -16 -38 -37 -90 -46 -115 -9 -25
-23 -60 -31 -78 -8 -18 -11 -37 -8 -42 3 -6 2 -10 -3 -10 -14 0 -143 -270
-136 -282 4 -6 3 -8 -3 -5 -5 3 -18 -11 -27 -31 -10 -20 -16 -38 -15 -38 2 -1
-3 -10 -12 -20 -24 -27 -49 -80 -42 -88 4 -3 1 -6 -5 -6 -6 0 -24 -28 -41 -61
-17 -34 -35 -67 -40 -73 -25 -31 -101 -188 -95 -198 4 -6 3 -8 -3 -5 -11 7
-63 -53 -63 -72 0 -6 -4 -11 -8 -11 -5 0 -34 -37 -65 -82 -32 -46 -66 -94 -76
-108 -11 -14 -53 -77 -95 -140 -41 -63 -95 -142 -120 -175 -139 -188 -297
-428 -399 -605 -196 -339 -468 -863 -621 -1195 -37 -80 -89 -193 -116 -251
-28 -58 -50 -107 -50 -109 0 -2 -34 -76 -76 -165 -41 -88 -82 -184 -90 -213
-53 -190 -79 -340 -106 -612 l-13 -130 -7 285 c-7 253 -5 304 13 460 33 292
95 600 160 807 54 172 157 455 198 544 11 24 31 71 45 104 62 150 287 607 397
806 82 149 99 190 147 350 45 150 229 623 286 737 20 40 35 72 33 72 -2 0 -20
-24 -40 -52 -19 -29 -72 -98 -118 -153 -46 -55 -109 -134 -139 -175 -123 -168
-642 -821 -723 -910 -28 -31 -57 -54 -66 -52 -12 2 -13 1 -3 -6 9 -6 5 -14
-15 -33 -14 -13 -23 -18 -19 -11 4 6 2 12 -3 12 -6 0 -12 -4 -12 -10 -3 -20
-4 -25 -12 -38 -5 -7 -12 -10 -16 -7 -5 2 -46 -35 -93 -83 -78 -80 -151 -151
-363 -353 -122 -116 -443 -380 -700 -577 -44 -33 -183 -139 -310 -235 -394
-299 -549 -419 -641 -497 -125 -105 -310 -290 -319 -320 -4 -14 -20 -43 -35
-65 -30 -44 -87 -143 -78 -135 3 3 38 53 77 111 111 167 133 187 314 280 87
44 192 106 235 137 136 98 274 193 278 190 1 -2 -31 -48 -73 -103 -135 -179
-297 -443 -411 -670 -58 -116 -145 -344 -167 -436 -16 -70 -19 -127 -3 -67 8
31 15 37 46 43 37 7 171 76 295 154 21 13 40 22 41 20 8 -8 -123 -212 -160
-250 -21 -22 -85 -69 -141 -105 -57 -36 -103 -68 -103 -70 0 -8 104 48 165 89
172 115 442 358 845 758 307 305 737 770 927 1001 21 25 81 97 134 160 53 62
111 133 130 158 19 25 59 77 90 115 134 169 306 405 434 595 75 113 141 210
147 215 13 14 5 -3 -109 -235 -103 -211 -113 -231 -181 -385 -99 -227 -195
-497 -253 -715 -17 -63 -32 -118 -35 -121 -7 -12 -53 -246 -68 -354 -9 -60
-27 -209 -41 -330 -29 -267 -81 -523 -175 -870 -130 -475 -273 -873 -406
-1122 -57 -109 -59 -113 -45 -113 23 0 169 312 258 550 50 134 68 188 140 430
32 108 70 250 84 317 13 57 23 61 33 12 3 -17 24 -74 46 -125 39 -92 40 -96
31 -162 -6 -37 -17 -132 -26 -212 -60 -541 -124 -862 -209 -1054 -24 -54 -28
-84 -8 -60 12 13 56 127 86 219 65 202 117 553 216 1450 12 105 28 251 36 325
35 312 85 501 194 730 100 212 160 341 160 346 0 13 300 623 403 819 314 597
545 966 765 1222 129 150 310 408 482 688 151 247 186 310 250 458 28 65 66
146 85 180 58 108 141 310 277 671 91 245 176 650 214 1021 22 213 22 593 0
779 -25 216 -102 521 -162 639 -26 50 -93 139 -132 173 -20 17 -31 33 -26 37
26 16 161 19 217 4 94 -25 130 -51 377 -271 19 -17 -5 11 -53 62 -48 52 -98
107 -110 124 -12 16 -39 37 -59 45 -23 9 -35 20 -31 27 3 6 3 8 -2 4 -4 -4
-26 2 -49 14 -22 11 -42 20 -44 19 -1 -2 -16 1 -33 4 -46 10 -68 11 -139 5z
m-1910 -4727 c-133 -238 -951 -1473 -1189 -1798 -127 -173 -361 -472 -411
-525 -8 -9 -53 -59 -99 -111 -108 -120 -316 -327 -406 -404 -38 -33 -79 -68
-90 -78 -55 -50 -253 -193 -360 -259 -116 -73 -305 -178 -318 -178 -19 0 5 71
105 315 48 119 262 505 361 650 37 55 265 364 277 375 3 3 21 25 40 50 19 25
41 52 49 62 9 9 45 53 81 98 45 58 100 110 180 172 214 165 274 213 289 228 9
9 54 47 101 85 74 61 161 134 264 225 16 14 38 34 50 46 12 11 102 94 201 184
239 218 676 656 800 803 54 64 101 117 103 117 2 0 -11 -26 -28 -57z m-510
-1145 c-170 -224 -518 -646 -720 -874 -123 -138 -195 -216 -428 -463 -68 -72
-267 -274 -292 -296 l-23 -20 11 20 c23 43 93 127 224 271 239 261 430 503
687 869 62 88 132 178 155 200 127 121 437 386 445 379 2 -2 -25 -40 -59 -86z
m-1440 -623 c0 -2 -19 -23 -42 -47 -38 -40 -29 -23 16 30 19 22 26 26 26 17z
m1227 -1577 c-3 -8 -6 -5 -6 6 -1 11 2 17 5 13 3 -3 4 -12 1 -19z"/>
<path d="M8680 10136 c0 -2 11 -6 25 -8 14 -3 25 -1 25 3 0 5 -11 9 -25 9 -14
0 -25 -2 -25 -4z"/>
<path d="M9115 10005 c-158 -14 -223 -23 -245 -36 -19 -11 -11 -11 85 0 98 12
155 17 365 31 91 7 167 14 169 16 9 8 -238 1 -374 -11z"/>
<path d="M13095 9939 c-4 -6 -5 -12 -2 -15 2 -3 7 2 10 11 7 17 1 20 -8 4z"/>
<path d="M14130 9882 c12 -18 25 -31 28 -27 3 3 -7 18 -23 33 l-28 27 23 -33z"/>
<path d="M7832 9893 c24 -49 32 -63 39 -63 5 0 -1 16 -12 35 -12 19 -23 35
-26 35 -2 0 -3 -3 -1 -7z"/>
<path d="M14196 9795 c15 -20 29 -33 32 -31 5 6 -40 65 -51 65 -4 1 4 -15 19
-34z"/>
<path d="M730 9695 c-52 -52 -91 -95 -87 -95 8 0 188 183 184 187 -2 1 -45
-40 -97 -92z"/>
<path d="M13218 9754 c-15 -8 -31 -28 -38 -48 -10 -32 -8 -37 44 -111 31 -42
66 -94 78 -116 22 -39 38 -46 46 -18 3 11 2 11 -6 1 -7 -10 -14 -4 -27 25 -9
21 -26 58 -38 82 -11 25 -21 59 -21 77 0 18 -4 30 -8 28 -3 -2 -9 0 -13 6 -10
17 -21 11 -22 -12 -2 -17 0 -19 7 -8 5 8 12 11 17 7 4 -5 1 -12 -7 -17 -10 -7
-19 -5 -27 6 -16 22 -6 44 21 44 16 0 18 2 7 9 -14 9 -7 31 10 31 6 0 7 -5 3
-12 -5 -8 0 -9 15 -5 25 6 106 -56 106 -82 0 -9 12 -47 27 -86 36 -97 38 -109
40 -253 0 -93 3 -116 9 -87 11 53 10 177 -2 245 -5 30 -11 71 -13 91 -4 45
-34 127 -58 158 -35 46 -107 68 -150 45z m29 -124 c-1 -22 -17 -28 -17 -7 0
12 9 27 16 27 2 0 2 -9 1 -20z m146 -4 c4 -10 1 -13 -9 -9 -15 6 -19 23 -5 23
5 0 11 -7 14 -14z"/>
<path d="M7308 9713 c7 -3 16 -2 19 1 4 3 -2 6 -13 5 -11 0 -14 -3 -6 -6z"/>
<path d="M1103 9645 c0 -33 2 -45 4 -27 2 18 2 45 0 60 -2 15 -4 0 -4 -33z"/>
<path d="M6653 9623 c9 -2 23 -2 30 0 6 3 -1 5 -18 5 -16 0 -22 -2 -12 -5z"/>
<path d="M6735 9620 c-4 -6 -11 -7 -17 -4 -7 4 -8 2 -4 -5 6 -9 11 -9 22 0 14
11 18 19 10 19 -3 0 -8 -5 -11 -10z"/>
<path d="M1154 9575 c-3 -19 -3 -52 2 -72 7 -36 8 -36 12 -10 5 36 53 64 73
41 7 -8 25 -24 40 -35 27 -19 28 -19 26 0 0 11 -6 19 -12 18 -5 -1 -10 5 -10
13 0 8 -5 21 -12 28 -13 14 -50 16 -55 3 -1 -4 -14 -12 -27 -16 -23 -7 -24 -6
-18 29 7 46 -10 47 -19 1z"/>
<path d="M6755 9600 c3 -5 8 -10 11 -10 2 0 4 5 4 10 0 6 -5 10 -11 10 -5 0
-7 -4 -4 -10z"/>
<path d="M619 9573 c-13 -16 -12 -17 4 -4 9 7 17 15 17 17 0 8 -8 3 -21 -13z"/>
<path d="M1092 9540 c0 -19 2 -27 5 -17 2 9 2 25 0 35 -3 9 -5 1 -5 -18z"/>
<path d="M6538 9543 c7 -3 16 -2 19 1 4 3 -2 6 -13 5 -11 0 -14 -3 -6 -6z"/>
<path d="M6445 9516 c-65 -32 -55 -32 20 -1 33 13 53 25 45 25 -8 0 -37 -11
-65 -24z"/>
<path d="M1121 9500 c-8 -4 -20 -6 -27 -3 -8 3 -15 -8 -18 -31 -16 -100 -17
-111 -7 -96 6 8 11 30 11 48 0 31 23 64 51 74 8 3 12 8 9 11 -3 3 -12 2 -19
-3z"/>
<path d="M6360 9475 c-14 -8 -20 -14 -14 -15 5 0 19 7 30 15 24 18 16 19 -16
0z"/>
<path d="M1013 9442 c-55 -36 -68 -51 -18 -22 37 21 75 51 65 49 -3 0 -24 -12
-47 -27z"/>
<path d="M7220 9421 c0 -13 37 -181 46 -210 2 -8 7 -11 11 -8 6 7 -34 194 -48
217 -7 12 -8 12 -9 1z"/>
<path d="M12983 9395 c-7 -7 -39 -64 -71 -127 -33 -62 -74 -139 -91 -172 -44
-79 -200 -287 -275 -364 -71 -74 -89 -107 -25 -45 113 108 146 134 153 117 9
-23 7 -31 -3 -15 -12 19 -50 -15 -44 -40 3 -11 0 -19 -6 -19 -6 0 -8 8 -4 18
6 15 5 15 -10 3 -9 -7 -14 -18 -10 -24 3 -6 1 -7 -5 -3 -8 5 -12 0 -12 -14 0
-11 -11 -38 -24 -59 -14 -21 -22 -41 -19 -45 3 -3 -6 -24 -21 -46 -41 -62 -17
-47 36 23 273 357 339 473 429 753 22 68 22 81 2 59z m-269 -532 c4 -10 4 -14
0 -10 -4 4 -16 -1 -28 -10 -20 -18 -20 -18 0 9 23 33 20 32 28 11z m-54 -103
c0 -5 -4 -10 -10 -10 -5 0 -10 5 -10 10 0 6 5 10 10 10 6 0 10 -4 10 -10z
m-59 -73 c-10 -9 -11 -8 -5 6 3 10 9 15 12 12 3 -3 0 -11 -7 -18z"/>
<path d="M6796 9328 c-9 -12 -16 -29 -16 -36 0 -10 -7 -12 -25 -8 -30 8 -61
-7 -92 -43 -38 -44 -23 -71 39 -71 30 0 47 8 78 37 29 25 38 39 30 47 -16 16
-12 54 10 76 15 15 16 20 6 20 -8 0 -22 -10 -30 -22z m-22 -66 c2 -4 -13 -7
-34 -7 -22 0 -33 3 -27 7 16 10 55 10 61 0z"/>
<path d="M1051 9323 c0 -12 -4 -30 -7 -40 -5 -17 -5 -17 6 0 6 10 9 28 7 40
-4 22 -4 22 -6 0z"/>
<path d="M6696 9325 c-40 -14 -107 -63 -114 -83 -7 -21 16 -13 50 19 38 36 86
59 123 59 14 0 25 5 25 10 0 14 -38 12 -84 -5z"/>
<path d="M6838 9232 c15 -10 -11 -36 -71 -72 -32 -19 -47 -22 -89 -17 -53 7
-78 20 -78 43 0 8 -4 14 -10 14 -16 0 -12 -27 7 -45 21 -22 57 -35 93 -35 38
0 127 47 151 81 23 33 24 39 2 39 -13 0 -14 -3 -5 -8z"/>
<path d="M9565 9233 c-11 -3 -24 -10 -30 -15 -12 -13 35 0 50 13 5 5 7 8 5 8
-3 -1 -14 -3 -25 -6z"/>
<path d="M9393 9205 c-18 -8 -33 -16 -33 -19 0 -5 71 22 79 30 9 8 -15 3 -46
-11z"/>
<path d="M6932 9190 c-16 -42 -25 -123 -13 -115 6 3 11 15 11 26 0 11 7 30 15
43 11 17 13 30 6 47 l-9 24 -10 -25z"/>
<path d="M13421 9154 c0 -11 3 -14 6 -6 3 7 2 16 -1 19 -3 4 -6 -2 -5 -13z"/>
<path d="M6960 9129 c0 -5 -4 -7 -10 -4 -11 7 -14 -8 -3 -18 7 -8 33 11 33 24
0 5 -4 9 -10 9 -5 0 -10 -5 -10 -11z"/>
<path d="M1635 9069 c-4 -6 -5 -12 -2 -15 2 -3 7 2 10 11 7 17 1 20 -8 4z"/>
<path d="M1596 8960 c-14 -44 -26 -91 -25 -103 0 -12 2 -17 4 -12 29 90 55
188 51 192 -2 3 -16 -32 -30 -77z"/>
<path d="M12875 8920 c-19 -38 -33 -70 -31 -70 6 0 54 84 66 114 18 49 0 26
-35 -44z"/>
<path d="M6850 8931 c-25 -26 -61 -59 -80 -75 -19 -15 -10 -11 20 10 55 37 81
63 101 97 14 24 9 21 -41 -32z"/>
<path d="M8869 8949 c15 -6 35 -6 50 -1 22 8 18 9 -24 10 -41 0 -46 -1 -26 -9z"/>
<path d="M8118 8933 c7 -3 16 -2 19 1 4 3 -2 6 -13 5 -11 0 -14 -3 -6 -6z"/>
<path d="M8070 8920 c-8 -5 -10 -10 -5 -10 6 0 17 5 25 10 8 5 11 10 5 10 -5
0 -17 -5 -25 -10z"/>
<path d="M1563 8795 c0 -22 2 -30 4 -17 2 12 2 30 0 40 -3 9 -5 -1 -4 -23z"/>
<path d="M1841 8724 c-28 -74 -21 -80 8 -8 13 30 21 57 18 60 -3 3 -15 -20
-26 -52z"/>
<path d="M1552 8660 c0 -19 2 -27 5 -17 2 9 2 25 0 35 -3 9 -5 1 -5 -18z"/>
<path d="M12308 8509 c-149 -157 -276 -263 -548 -459 -172 -123 -240 -162
-450 -258 -23 -10 -22 -10 10 -5 19 3 89 30 155 60 66 30 130 56 143 59 46 9
502 268 587 333 33 25 112 97 175 160 63 62 95 96 70 75 -25 -21 -50 -45 -57
-53 -11 -14 -12 -14 -13 0 0 16 50 141 81 201 12 24 11 28 -5 28 -8 0 -74 -63
-148 -141z m79 -19 c-8 -21 -14 -26 -20 -17 -5 7 -6 1 -3 -15 4 -18 2 -28 -5
-28 -7 0 -10 12 -7 30 3 23 1 29 -8 26 -8 -3 -16 0 -20 6 -4 7 -3 8 4 4 7 -4
12 -2 12 5 0 10 3 10 12 1 17 -17 33 -15 18 3 -11 13 -10 14 5 9 14 -6 16 -4
10 6 -5 8 -4 11 3 7 7 -5 7 -16 -1 -37z m-51 -45 c-2 -7 1 -18 7 -25 9 -10 9
-11 -3 -8 -8 3 -14 15 -13 27 3 28 -5 27 -16 -1 -5 -15 -4 -26 3 -30 8 -6 8
-8 -1 -8 -6 0 -15 5 -18 10 -3 6 -11 10 -17 10 -7 0 -6 -6 2 -15 10 -12 10
-15 0 -15 -8 0 -11 -3 -7 -6 3 -4 19 -2 36 4 23 8 29 8 25 -2 -3 -7 -10 -13
-17 -14 -7 0 -21 -2 -32 -4 -26 -4 -32 50 -7 59 9 4 23 15 30 25 14 20 37 14
28 -7z m-78 -81 c7 -8 8 -15 2 -19 -6 -3 -10 -1 -10 5 0 6 -4 9 -9 6 -5 -3
-11 0 -14 7 -7 17 15 18 31 1z m42 -14 c0 -5 -5 -10 -11 -10 -5 0 -7 5 -4 10
3 6 8 10 11 10 2 0 4 -4 4 -10z m-83 -15 c-4 -8 -2 -17 3 -20 6 -4 10 -1 10 5
0 6 5 8 11 4 8 -4 7 -9 -2 -15 -17 -10 -44 14 -35 30 10 16 19 13 13 -4z m-17
-38 c0 -8 -4 -7 -12 1 -9 9 -15 9 -27 -1 -14 -10 -14 -10 -3 5 14 17 42 14 42
-5z"/>
<path d="M1552 8585 c0 -16 2 -22 5 -12 2 9 2 23 0 30 -3 6 -5 -1 -5 -18z"/>
<path d="M8415 8600 c-3 -5 -2 -10 4 -10 5 0 13 5 16 10 3 6 2 10 -4 10 -5 0
-13 -4 -16 -10z"/>
<path d="M7492 8508 c-77 -69 -341 -342 -412 -427 -73 -89 -30 -53 60 49 46
52 161 173 256 268 94 94 171 172 169 172 -1 0 -34 -28 -73 -62z"/>
<path d="M9825 8538 c-16 -5 -39 -13 -50 -18 -11 -5 -40 -16 -65 -24 -125 -41
-376 -162 -532 -257 -89 -54 -143 -98 -68 -56 133 75 226 124 320 169 107 51
382 168 397 168 4 0 17 7 27 15 22 17 14 18 -29 3z"/>
<path d="M8278 8496 c-51 -38 -84 -65 -104 -84 -8 -7 -14 -10 -14 -5 0 4 -8
-7 -16 -24 -10 -20 -24 -33 -36 -33 -10 0 -16 5 -13 10 4 6 10 8 14 6 4 -3 13
5 20 16 11 17 6 16 -27 -8 -29 -21 -36 -31 -28 -40 8 -9 15 -9 26 -1 8 7 7 2
-4 -10 -15 -18 -21 -20 -36 -10 -10 6 -16 15 -14 19 3 4 0 8 -6 8 -6 0 -8 5
-4 12 5 7 3 8 -5 4 -7 -5 -10 -11 -7 -14 3 -3 1 -11 -6 -19 -8 -10 -8 -12 4
-8 8 3 21 -1 28 -9 10 -13 9 -20 -4 -41 -9 -14 -19 -25 -22 -25 -4 0 0 7 7 17
12 14 12 15 -1 11 -8 -3 -23 1 -32 10 -10 8 -18 10 -18 5 0 -6 7 -13 15 -17
22 -8 18 -37 -10 -68 -29 -34 -40 -36 -24 -5 11 20 11 21 -4 8 -11 -9 -15 -21
-11 -37 4 -15 2 -24 -5 -24 -6 0 -11 6 -11 13 0 8 -3 9 -8 1 -10 -15 -42 -14
-42 2 0 7 -8 10 -19 7 -25 -6 -36 13 -20 35 8 9 1 6 -14 -7 -31 -28 -33 -33
-12 -25 8 4 15 1 15 -5 0 -6 -10 -11 -22 -11 -13 -1 -34 -7 -48 -15 -23 -13
-18 -14 66 -15 50 0 93 -3 97 -6 3 -4 -13 -32 -37 -63 -93 -122 -189 -284
-226 -381 -7 -19 -20 -43 -28 -52 -8 -10 -12 -18 -9 -18 3 0 -1 -17 -10 -37
-17 -40 -45 -159 -68 -284 -12 -70 -18 -169 -15 -259 l1 -35 18 45 c29 75 98
185 180 288 43 53 84 102 92 108 10 8 52 7 159 -7 80 -9 217 -22 305 -28 204
-15 814 -22 840 -11 12 5 -99 9 -275 10 -162 1 -315 3 -340 5 -25 1 -101 6
-170 9 -199 11 -467 42 -475 57 -3 4 15 27 41 51 35 32 55 43 83 45 199 10
919 108 939 128 8 7 7 7 -211 -25 -111 -16 -233 -34 -272 -40 -66 -9 -295 -33
-412 -43 -29 -2 -53 -1 -53 3 0 27 206 171 466 328 158 95 196 108 256 84 14
-6 53 -16 85 -22 l60 -10 54 53 c30 29 79 74 109 100 l55 48 -60 -39 c-33 -22
-71 -52 -84 -66 -28 -30 -77 -33 -166 -12 l-50 11 60 37 c96 58 185 99 197 92
6 -4 8 -3 5 3 -6 10 165 100 308 163 28 12 74 33 103 46 29 14 58 21 64 18 6
-4 8 -3 5 3 -3 5 11 15 31 22 90 32 171 70 151 70 -44 2 -291 -100 -518 -213
-80 -40 -175 -84 -211 -97 -36 -13 -71 -31 -78 -41 -12 -16 -16 -17 -30 -6
-12 10 -14 10 -8 1 5 -9 -5 -19 -28 -30 -20 -9 -36 -20 -36 -25 0 -4 -7 -5
-15 -2 -8 4 -15 2 -15 -3 0 -6 -29 -25 -65 -43 -36 -18 -70 -39 -76 -47 -6 -7
-21 -13 -33 -13 -12 0 -29 -9 -39 -21 -13 -14 -24 -18 -40 -13 -20 6 -21 5 -7
-11 14 -17 13 -17 -7 -6 -19 10 -22 9 -17 -4 5 -11 2 -13 -10 -9 -18 7 -123
-60 -203 -129 -135 -117 -311 -277 -371 -339 -90 -94 -202 -244 -246 -331 -41
-83 -44 -74 -25 73 25 204 77 368 181 575 89 175 315 479 444 597 126 116 168
158 157 158 -6 0 -31 -15 -55 -34z m432 -463 c0 -5 12 -8 28 -9 15 0 49 -4 75
-8 40 -6 46 -10 36 -22 -12 -14 -41 -19 -52 -8 -4 4 -24 8 -46 10 -49 5 -91
20 -91 34 0 5 11 10 25 10 14 0 25 -3 25 -7z"/>
<path d="M1563 8480 c0 -25 2 -35 4 -22 2 12 2 32 0 45 -2 12 -4 2 -4 -23z"/>
<path d="M12500 8405 c-65 -66 -73 -82 -38 -76 4 0 5 -6 2 -14 -4 -8 -10 -15
-15 -15 -5 0 -8 -3 -7 -7 3 -10 -64 -131 -109 -198 l-34 -50 40 45 c22 25 43
54 47 65 3 11 12 27 19 35 17 20 68 112 101 182 14 31 32 59 39 62 12 4 41 46
33 46 -2 0 -37 -34 -78 -75z"/>
<path d="M1572 8390 c0 -14 2 -19 5 -12 2 6 2 18 0 25 -3 6 -5 1 -5 -13z"/>
<path d="M7031 8344 c0 -11 3 -14 6 -6 3 7 2 16 -1 19 -3 4 -6 -2 -5 -13z"/>
<path d="M6915 8340 c-3 -6 1 -7 9 -4 18 7 21 14 7 14 -6 0 -13 -4 -16 -10z"/>
<path d="M7970 8306 c0 -2 9 -6 20 -9 11 -3 18 -1 14 4 -5 9 -34 13 -34 5z"/>
<path d="M7930 8275 c-11 -13 -10 -14 4 -9 9 3 16 10 16 15 0 13 -6 11 -20 -6z"/>
<path d="M7876 8235 c-11 -8 -17 -17 -14 -20 2 -3 13 4 23 15 21 23 18 25 -9
5z"/>
<path d="M1601 8224 c-4 -34 46 -231 56 -220 2 2 -5 35 -15 72 -11 38 -25 89
-30 114 -5 25 -10 40 -11 34z"/>
<path d="M7930 8220 c0 -7 -7 -9 -16 -6 -14 5 -15 4 -4 -9 7 -9 16 -12 19 -8
3 4 10 11 15 14 4 4 3 10 -3 13 -6 4 -11 2 -11 -4z"/>
<path d="M7845 8180 c-3 -5 -2 -10 4 -10 5 0 13 5 16 10 3 6 2 10 -4 10 -5 0
-13 -4 -16 -10z"/>
<path d="M8725 8130 c-3 -6 1 -7 9 -4 18 7 21 14 7 14 -6 0 -13 -4 -16 -10z"/>
<path d="M8625 8080 c-3 -5 -1 -10 4 -10 6 0 11 5 11 10 0 6 -2 10 -4 10 -3 0
-8 -4 -11 -10z"/>
<path d="M11150 8070 c-8 -5 -10 -10 -5 -10 6 0 17 5 25 10 8 5 11 10 5 10 -5
0 -17 -5 -25 -10z"/>
<path d="M8529 8019 l-24 -20 28 17 c15 9 27 18 27 20 0 8 -8 4 -31 -17z"/>
<path d="M7020 8005 c-7 -9 -11 -17 -9 -20 3 -2 10 5 17 15 14 24 10 26 -8 5z"/>
<path d="M8450 7969 c0 -5 5 -7 10 -4 6 3 10 8 10 11 0 2 -4 4 -10 4 -5 0 -10
-5 -10 -11z"/>
<path d="M1559 7873 l-24 -28 28 24 c25 23 32 31 24 31 -2 0 -14 -12 -28 -27z"/>
<path d="M9783 7857 c51 -6 90 -6 110 0 25 8 8 10 -78 10 l-110 0 78 -10z"/>
<path d="M9555 7835 l-70 -23 53 5 c30 3 70 14 90 24 50 26 14 23 -73 -6z"/>
<path d="M1509 7813 c-13 -16 -12 -17 4 -4 16 13 21 21 13 21 -2 0 -10 -8 -17
-17z"/>
<path d="M1438 7717 c-47 -66 -72 -107 -64 -107 4 0 63 83 99 141 33 51 12 31
-35 -34z"/>
<path d="M8968 7693 c7 -3 16 -2 19 1 4 3 -2 6 -13 5 -11 0 -14 -3 -6 -6z"/>
<path d="M7352 7665 c9 -10 21 -16 28 -13 7 2 -1 10 -16 17 -27 12 -28 11 -12
-4z"/>
<path d="M7548 7613 c7 -3 16 -2 19 1 4 3 -2 6 -13 5 -11 0 -14 -3 -6 -6z"/>
<path d="M7588 7613 c7 -3 16 -2 19 1 4 3 -2 6 -13 5 -11 0 -14 -3 -6 -6z"/>
<path d="M7525 7544 c31 -24 55 -36 55 -27 0 10 -53 43 -67 43 -4 0 1 -8 12
-16z"/>
<path d="M2036 7447 c-11 -17 -25 -41 -31 -52 -6 -11 -48 -83 -92 -160 -109
-191 -224 -405 -282 -528 -165 -350 -200 -427 -193 -427 4 0 21 30 37 68 96
224 508 993 559 1045 13 12 34 87 25 87 -2 0 -13 -15 -23 -33z"/>
<path d="M11400 7295 c-7 -9 -8 -15 -2 -15 5 0 12 7 16 15 3 8 4 15 2 15 -2 0
-9 -7 -16 -15z"/>
<path d="M11342 7230 c-12 -16 -16 -27 -9 -25 14 6 41 45 34 51 -2 2 -13 -10
-25 -26z"/>
<path d="M11995 7117 c-137 -234 -593 -727 -1013 -1096 -83 -74 -152 -136
-152 -138 0 -2 37 27 82 64 301 250 685 625 853 835 108 136 261 355 253 363
-2 2 -13 -10 -23 -28z"/>
<path d="M4337 7119 c4 -13 8 -18 11 -10 2 7 -1 18 -6 23 -8 8 -9 4 -5 -13z"/>
<path d="M7968 6863 c6 -2 18 -2 25 0 6 3 1 5 -13 5 -14 0 -19 -2 -12 -5z"/>
<path d="M5340 6834 c-13 -32 -13 -54 0 -54 5 0 9 10 7 23 -2 18 2 22 23 19
13 -1 37 -15 52 -29 38 -36 35 -12 -3 32 -37 42 -66 45 -79 9z"/>
<path d="M8056 6850 c22 -5 58 -16 79 -24 21 -9 40 -14 42 -12 8 8 -107 46
-135 45 -20 -1 -17 -3 14 -9z"/>
<path d="M4342 6750 c0 -57 1 -61 9 -32 6 20 6 44 0 65 -8 28 -9 24 -9 -33z"/>
<path d="M7575 6803 c22 -2 44 -8 50 -13 5 -4 42 -15 82 -24 39 -9 84 -21 100
-28 26 -11 22 -12 -53 -18 -68 -6 -93 -14 -164 -50 -139 -73 -250 -200 -257
-294 l-3 -51 16 43 c9 24 19 41 22 38 3 -3 18 16 33 43 36 62 71 88 184 136
82 35 98 38 180 38 66 0 107 -6 154 -22 73 -25 95 -22 26 4 -25 10 -43 20 -41
22 8 8 98 -36 92 -46 -3 -4 12 -21 33 -35 45 -31 115 -111 125 -143 4 -12 13
-26 20 -32 10 -9 13 -27 9 -68 -6 -62 8 -83 54 -83 21 0 22 3 13 20 -6 11 -14
19 -18 19 -29 -5 -34 3 -29 46 2 29 -1 49 -8 55 -7 6 -15 21 -19 33 -15 57 72
-82 104 -167 25 -66 22 -91 -11 -127 -20 -22 -29 -27 -24 -14 30 81 35 100 31
112 -9 22 -26 14 -26 -12 0 -71 -97 -179 -185 -208 -121 -39 -246 -46 -389
-21 -75 13 -112 12 -70 -2 10 -3 30 -10 44 -14 93 -32 174 -44 290 -44 105 -1
142 3 234 27 59 15 121 34 137 42 28 15 29 14 35 -11 4 -14 4 -83 2 -152 -4
-102 -9 -136 -26 -174 -12 -26 -22 -54 -22 -62 0 -8 -16 -44 -35 -80 -19 -37
-35 -73 -35 -81 0 -20 -16 -19 -24 1 -4 10 -12 14 -23 10 -16 -7 -159 6 -280
25 -35 5 -95 21 -135 34 -85 29 -89 30 -63 11 11 -7 50 -23 88 -35 37 -13 67
-25 67 -27 0 -3 -10 -2 -22 2 -45 14 -90 22 -82 14 18 -15 200 -88 262 -103
35 -9 70 -21 78 -28 7 -6 21 -9 29 -5 8 3 15 1 15 -4 0 -6 5 -10 12 -10 6 0
19 -6 27 -14 9 -7 26 -17 39 -20 20 -7 22 -4 23 26 0 25 4 19 14 -27 13 -62
44 -135 56 -135 4 0 9 12 12 28 18 89 41 159 62 187 34 44 78 143 110 248 l27
89 39 -4 c21 -2 39 -2 39 -1 0 2 -18 38 -40 80 -39 77 -40 79 -40 188 0 73 -7
137 -19 190 -11 44 -18 81 -17 83 2 1 27 -2 56 -8 29 -6 55 -8 57 -6 2 2 -29
25 -68 52 -39 26 -73 55 -76 63 -25 86 -186 291 -273 349 -150 101 -293 142
-500 147 -80 2 -127 1 -105 -2z m332 -129 c21 -14 31 -24 22 -21 -9 3 -60 11
-115 18 l-99 13 60 11 c75 14 85 13 132 -21z m198 -12 c-3 -3 -11 0 -18 7 -9
10 -8 11 6 5 10 -3 15 -9 12 -12z m49 -17 c11 -8 16 -18 12 -22 -3 -4 -16 3
-28 15 -25 25 -13 29 16 7z m-14 -30 c14 -8 21 -14 15 -14 -5 0 -21 6 -35 14
-14 8 -20 14 -15 14 6 0 21 -6 35 -14z m366 -383 c-4 -3 -14 2 -24 12 -16 18
-16 18 6 6 13 -6 21 -14 18 -18z m-26 -87 c6 -30 10 -69 8 -87 -2 -24 -8 -8
-19 55 -17 94 -8 122 11 32z m-76 -31 c3 -8 2 -12 -4 -9 -6 3 -10 10 -10 16 0
14 7 11 14 -7z m-70 -66 c7 -46 7 -47 -19 -44 -14 2 -32 9 -40 17 -12 12 -10
20 13 56 30 47 36 43 46 -29z m100 -88 l6 -65 -18 60 c-10 33 -16 71 -13 84 4
23 5 23 11 5 4 -10 10 -48 14 -84z m-159 51 c3 -5 0 -13 -6 -17 -7 -4 -9 -3
-5 4 3 5 0 13 -6 15 -9 4 -10 6 -1 6 6 1 14 -3 18 -8z m220 -351 c3 -6 -1 -7
-9 -4 -18 7 -21 14 -7 14 6 0 13 -4 16 -10z m-102 -255 c-3 -9 -8 -14 -10 -11
-3 3 -2 9 2 15 9 16 15 13 8 -4z m-423 -26 c16 -6 10 -7 -20 -3 -25 4 -52 10
-60 15 -17 10 39 1 80 -12z m207 -75 c-3 -3 -12 -4 -19 -1 -8 3 -5 6 6 6 11 1
17 -2 13 -5z"/>
<path d="M5468 6684 c-3 -36 -5 -39 -30 -36 -32 3 -36 -5 -10 -24 23 -18 49
-17 56 2 9 23 7 67 -3 83 -7 11 -10 4 -13 -25z"/>
<path d="M7875 6540 c-101 -9 -165 -47 -165 -96 0 -15 4 -23 10 -19 6 4 8 9 6
13 -9 14 20 38 71 60 61 26 113 29 113 7 0 -9 -9 -15 -25 -15 -13 0 -43 -10
-65 -21 -33 -18 -39 -25 -34 -43 14 -46 69 -59 137 -31 47 19 58 51 16 47 -3
-1 -6 4 -6 11 0 7 -4 20 -8 29 -4 12 2 25 19 43 14 14 20 24 13 24 -7 -1 -43
-5 -82 -9z m12 -76 c-3 -3 -12 -4 -19 -1 -8 3 -5 6 6 6 11 1 17 -2 13 -5z"/>
<path d="M7950 6365 c-18 -10 -20 -14 -8 -15 23 0 48 11 48 21 0 12 -11 11
-40 -6z"/>
<path d="M7780 6352 c0 -15 69 -23 110 -13 l35 9 -41 1 c-23 1 -56 4 -73 7
-19 4 -31 2 -31 -4z"/>
<path d="M1255 5919 c-4 -6 -5 -12 -2 -15 2 -3 7 2 10 11 7 17 1 20 -8 4z"/>
<path d="M1237 5884 c-4 -4 -7 -14 -7 -23 0 -11 3 -12 11 -4 6 6 10 16 7 23
-2 6 -7 8 -11 4z"/>
<path d="M1210 5805 c0 -8 7 -15 15 -15 9 0 12 6 9 15 -4 8 -10 15 -15 15 -5
0 -9 -7 -9 -15z"/>
<path d="M3390 3830 c-8 -5 -10 -10 -5 -10 6 0 17 5 25 10 8 5 11 10 5 10 -5
0 -17 -5 -25 -10z"/>
<path d="M3330 3805 c-14 -8 -20 -14 -15 -14 6 0 21 6 35 14 14 8 21 14 15 14
-5 0 -21 -6 -35 -14z"/>
<path d="M3270 3780 c-8 -5 -10 -10 -5 -10 6 0 17 5 25 10 8 5 11 10 5 10 -5
0 -17 -5 -25 -10z"/>
<path d="M3220 3760 c-8 -5 -10 -10 -5 -10 6 0 17 5 25 10 8 5 11 10 5 10 -5
0 -17 -5 -25 -10z"/>
<path d="M128 3651 c-71 -36 -128 -70 -128 -74 0 -8 214 100 254 129 40 28 -1
10 -126 -55z"/>
<path d="M4090 2290 c14 -4 32 -8 40 -9 13 -1 13 0 0 9 -8 5 -26 9 -40 9 l-25
-1 25 -8z"/>
<path d="M8711 2074 c0 -11 3 -14 6 -6 3 7 2 16 -1 19 -3 4 -6 -2 -5 -13z"/>
<path d="M7361 1858 c-41 -547 -160 -1049 -332 -1392 -69 -139 -125 -206 -219
-268 -59 -39 -19 -29 74 18 87 44 141 89 223 183 221 258 395 625 523 1104 35
130 90 390 90 423 0 19 -14 24 -152 53 -84 18 -162 35 -174 38 -20 4 -21 -2
-33 -159z"/>
<path d="M5613 1920 c0 -30 2 -43 4 -27 2 15 2 39 0 55 -2 15 -4 2 -4 -28z"/>
<path d="M7842 1879 c3 -13 31 -145 61 -294 65 -311 97 -429 167 -622 51 -137
196 -446 242 -513 13 -19 27 -42 30 -50 11 -28 195 -288 243 -344 84 -97 78
-61 -8 47 -119 149 -213 293 -305 467 -81 152 -144 297 -198 450 -53 152 -110
349 -118 410 -16 119 -95 458 -109 467 -6 4 -8 -3 -5 -18z"/>
<path d="M8677 1879 c-21 -80 -31 -252 -32 -549 0 -463 28 -684 128 -990 58
-178 124 -340 138 -340 15 0 11 14 -25 93 -109 238 -184 556 -201 852 -3 50
-10 140 -17 201 -12 125 -6 471 12 622 12 100 11 160 -3 111z"/>
<path d="M4270 1869 c-22 -18 -22 -19 -3 -10 12 6 25 16 28 21 9 15 3 12 -25
-11z"/>
<path d="M4163 1802 c-55 -36 -68 -52 -18 -22 59 35 81 50 70 49 -6 0 -29 -12
-52 -27z"/>
<path d="M3 1520 c2 -8 44 -80 91 -160 48 -80 117 -206 154 -280 37 -74 68
-137 70 -139 1 -2 5 -2 8 2 9 8 -169 353 -243 469 -64 101 -92 139 -80 108z"/>
<path d="M0 1338 c0 -10 16 -57 36 -105 124 -298 191 -607 182 -835 -2 -54 -1
-98 3 -98 3 0 39 34 78 76 75 78 156 193 145 203 -4 3 -9 1 -11 -6 -11 -31
-75 -115 -135 -178 l-67 -70 -1 113 c0 145 -22 298 -70 489 -45 175 -158 468
-160 411z"/>
<path d="M330 922 c0 -17 30 -75 36 -69 3 3 -4 22 -15 44 -11 21 -20 32 -21
25z"/>
<path d="M376 815 c8 -34 12 -41 20 -33 3 4 -2 19 -10 35 l-16 28 6 -30z"/>
<path d="M402 740 c8 -25 28 -51 28 -37 0 15 -24 67 -30 67 -5 0 -4 -14 2 -30z"/>
<path d="M435 650 c3 -5 8 -10 11 -10 2 0 4 5 4 10 0 6 -5 10 -11 10 -5 0 -7
-4 -4 -10z"/>
<path d="M445 617 c-4 -10 -5 -21 -1 -24 10 -10 18 4 13 24 -4 17 -4 17 -12 0z"/>
<path d="M10109 553 c-131 -174 -296 -304 -476 -373 -43 -17 -112 -44 -153
-60 -41 -16 -102 -37 -135 -45 -84 -21 -203 -69 -182 -73 10 -2 48 8 85 22
149 57 372 98 602 111 255 14 300 18 370 30 88 15 194 60 249 107 55 46 41 55
-17 11 -97 -74 -218 -107 -442 -118 -149 -8 -356 -27 -435 -40 -16 -3 -1 6 35
20 147 57 268 135 383 248 84 82 167 181 167 198 0 20 -17 7 -51 -38z"/>
<path d="M4320 286 c0 -3 9 -10 20 -16 11 -6 20 -8 20 -6 0 3 -9 10 -20 16
-11 6 -20 8 -20 6z"/>
<path d="M4390 247 c0 -3 46 -33 103 -68 56 -34 141 -89 189 -121 48 -32 93
-58 99 -58 15 0 -211 149 -289 192 -30 16 -65 36 -78 45 -13 8 -24 13 -24 10z"/>
</g>
</svg>
